<svg xmlns="http://www.w3.org/2000/svg" viewBox="0 0 750 500"><g id="freepik--background-complete--inject-40"><path d="M66.86,216.43s-8.35-.61-7.58,18.13S62,263.28,62,263.28s-.25,4.15-3.46,3.34-9.28-4.86-12.26-1.84-2,7.94,2.11,13.61S61,296.79,61.79,297.94s1.05,3.26-1.23,3.06-17.67-5.43-19.71,2,12,21.34,13.52,22.89,1.58,2.53,1,3.46-5.62-1.3-10.06-2.61-9.81-2-10.63,2.36S40,346.41,63.2,359.94l11.14,5.56,10.55-6.73c21.71-15.78,26.58-29.21,25.33-33.5s-6.53-3-10.82-1.29-9.05,4.48-9.75,3.61-.72-1.85.63-3.55,13.93-16.92,11.16-24.13-17.57-.48-19.82-.05-2.16-1.71-1.52-2.91,7.88-14.76,11.41-20.8,4.14-10.94.74-13.75-8.89,1.92-12,3.05-3.78-3-3.78-3,.9-10.12-.21-28.84-9.56-17.21-9.56-17.21" style="fill:#ebebeb"></path><path d="M67.52,233.21s0,.13,0,.39.05.66.08,1.15c.07,1,.18,2.52.3,4.42.26,3.85.59,9.41,1,16.28.76,13.75,1.66,32.76,2.57,53.75s1.77,40,2.45,53.76c.35,6.86.63,12.42.83,16.29.1,1.91.17,3.39.22,4.43,0,.49,0,.87.05,1.15a3.81,3.81,0,0,1,0,.39s0-.13-.05-.39,0-.66-.08-1.15c-.07-1-.18-2.52-.3-4.42-.26-3.84-.59-9.41-1-16.28-.76-13.75-1.66-32.76-2.57-53.76s-1.77-40-2.45-53.75c-.35-6.86-.63-12.42-.83-16.29-.1-1.91-.17-3.39-.22-4.43,0-.49,0-.87,0-1.15A3.81,3.81,0,0,1,67.52,233.21Z" style="fill:#e0e0e0"></path><path d="M54.47,270.78a3.25,3.25,0,0,1,.7.57c.43.39,1,1,1.77,1.7,1.47,1.46,3.45,3.53,5.59,5.85l5.45,6,1.66,1.8a4.18,4.18,0,0,1,.58.69,3.56,3.56,0,0,1-.7-.57c-.43-.39-1-1-1.76-1.71-1.46-1.47-3.41-3.56-5.55-5.88l-5.49-5.93-1.67-1.79A4.18,4.18,0,0,1,54.47,270.78Z" style="fill:#e0e0e0"></path><path d="M71.33,287c-.09-.09,4-4.36,9.1-9.54s9.33-9.32,9.41-9.24-4,4.36-9.11,9.54S71.41,287.07,71.33,287Z" style="fill:#e0e0e0"></path><path d="M71.28,319.29a3.55,3.55,0,0,1,.78-.49l2.18-1.23c1.84-1,4.37-2.47,7.11-4.15s5.18-3.29,6.94-4.46l2.08-1.39a4.24,4.24,0,0,1,.79-.47s-.23.24-.69.61-1.15.88-2,1.5c-1.71,1.24-4.13,2.89-6.88,4.57s-5.32,3.09-7.2,4.06c-.94.48-1.71.86-2.25,1.1A3.58,3.58,0,0,1,71.28,319.29Z" style="fill:#e0e0e0"></path><path d="M52.81,308a2.76,2.76,0,0,1,.77.36c.48.25,1.18.64,2,1.12,1.7,1,4,2.32,6.59,3.84s4.86,2.93,6.52,4c.83.51,1.5.93,2,1.24a3.38,3.38,0,0,1,.69.5,2.92,2.92,0,0,1-.77-.36l-2-1.12c-1.7-1-4-2.33-6.59-3.85s-4.86-2.92-6.52-3.95c-.83-.52-1.5-.94-2-1.24A3.81,3.81,0,0,1,52.81,308Z" style="fill:#e0e0e0"></path><path d="M49.15,336.5a5,5,0,0,1,1,.47l2.59,1.44c2.18,1.22,5.18,2.94,8.48,4.86s6.28,3.67,8.42,5l2.53,1.54a5.62,5.62,0,0,1,.89.62,5,5,0,0,1-1-.47l-2.59-1.43c-2.18-1.23-5.18-2.94-8.48-4.86s-6.28-3.68-8.42-5L50,337.12A4.9,4.9,0,0,1,49.15,336.5Z" style="fill:#e0e0e0"></path><path d="M72.56,349.91a6.2,6.2,0,0,1,1-.65l2.71-1.65c2.29-1.39,5.44-3.33,8.86-5.56s6.48-4.32,8.67-5.85l2.61-1.81a6.17,6.17,0,0,1,1-.63,7.43,7.43,0,0,1-.89.76c-.59.47-1.45,1.12-2.53,1.92-2.15,1.6-5.18,3.74-8.61,6s-6.61,4.13-8.94,5.46c-1.17.66-2.12,1.19-2.78,1.53A5.89,5.89,0,0,1,72.56,349.91Z" style="fill:#e0e0e0"></path><polygon points="89.32 369.15 58.48 369.15 68.54 445.35 79.25 445.35 89.32 369.15" style="fill:#e0e0e0"></polygon><path d="M60.08,378.52s0,.1.16.27a2,2,0,0,0,.75.53,3.73,3.73,0,0,0,3.25-.4c1.25-.69,2.33-2,4-2.63a8.73,8.73,0,0,1,5.68.11A24.19,24.19,0,0,1,79.2,379a36.43,36.43,0,0,0,4.29,2.3,11.94,11.94,0,0,0,3.17.92,7,7,0,0,0,.89.06c.21,0,.32,0,.32,0a15.76,15.76,0,0,1-4.23-1.27,40.42,40.42,0,0,1-4.2-2.38,23,23,0,0,0-5.38-2.64,9.09,9.09,0,0,0-6-.07,7.75,7.75,0,0,0-2.25,1.4,16.88,16.88,0,0,1-1.77,1.36,3.65,3.65,0,0,1-3,.53A3.37,3.37,0,0,1,60.08,378.52Z" style="fill:#f5f5f5"></path><path d="M61.2,392.55s.25-.31.73-.82a6.86,6.86,0,0,1,2.46-1.56,11.14,11.14,0,0,1,4.29-.65,46.28,46.28,0,0,1,5.37.73,18,18,0,0,0,5.49.23,15,15,0,0,0,4.33-1.23,13.57,13.57,0,0,0,2.6-1.55,3.45,3.45,0,0,0,.82-.74,27.82,27.82,0,0,1-3.56,2,15.57,15.57,0,0,1-4.24,1.1,18.64,18.64,0,0,1-5.36-.26,39.64,39.64,0,0,0-5.43-.7,10.79,10.79,0,0,0-4.44.78,6.38,6.38,0,0,0-2.47,1.76,4,4,0,0,0-.47.68A.86.86,0,0,0,61.2,392.55Z" style="fill:#f5f5f5"></path><path d="M85.83,400.06a3,3,0,0,0-.85-.44,9.08,9.08,0,0,0-2.56-.55,17.12,17.12,0,0,0-3.86.22c-1.44.24-3,.63-4.6,1a19.61,19.61,0,0,1-4.6.52,10,10,0,0,1-3.64-.79A8.44,8.44,0,0,1,63,397.94a2.32,2.32,0,0,0,.52.8,6.36,6.36,0,0,0,2.1,1.58,9.89,9.89,0,0,0,3.77.93,18.31,18.31,0,0,0,4.72-.49c1.64-.35,3.17-.76,4.57-1a17.62,17.62,0,0,1,3.77-.32A14.32,14.32,0,0,1,85.83,400.06Z" style="fill:#f5f5f5"></path><path d="M63.93,410.63a4.93,4.93,0,0,1,3-.3,14.72,14.72,0,0,1,3.14,1.17,12,12,0,0,0,4.06,1.12,12.22,12.22,0,0,0,7.38-1.71,10.82,10.82,0,0,0,1.84-1.41c.37-.4.56-.63.54-.66a26.49,26.49,0,0,1-2.56,1.76,12.66,12.66,0,0,1-7.15,1.52C71.25,412,69,410.21,67,410a4.52,4.52,0,0,0-2.32.2C64.13,410.38,63.91,410.61,63.93,410.63Z" style="fill:#f5f5f5"></path><path d="M65.65,425.26a6,6,0,0,0,2.57-.52c1.55-.51,3.47-1.7,5.71-2.59a9.37,9.37,0,0,1,3.28-.69,6.18,6.18,0,0,1,2.63.6,5.85,5.85,0,0,1,1.91,1.65,1.41,1.41,0,0,0-.3-.65A4.17,4.17,0,0,0,80,421.75a6,6,0,0,0-2.8-.75,9.1,9.1,0,0,0-3.46.68c-2.32.92-4.18,2.15-5.66,2.73S65.64,425.18,65.65,425.26Z" style="fill:#f5f5f5"></path><path d="M67.16,432.06a7.1,7.1,0,0,0,2,.63,34.6,34.6,0,0,0,4.88.83,35.06,35.06,0,0,0,5,.14,7.51,7.51,0,0,0,2-.24c0-.15-3.12,0-6.94-.4S67.2,431.91,67.16,432.06Z" style="fill:#f5f5f5"></path><path d="M692.18,54.18,635.41,33.8,579.18,53.91C572,57.3,565.71,59.33,565.71,66V99.31a125.87,125.87,0,0,0,18.52,66.26A115.3,115.3,0,0,0,636,211.25c23-7.46,40.14-27.37,50.62-44.39a125.73,125.73,0,0,0,18.53-66.25V70.67C705.11,61.13,700.05,56.48,692.18,54.18Z" style="fill:#f5f5f5"></path><path d="M636,191.93c-19.78-8.81-32.63-23-40.93-36.44a99.54,99.54,0,0,1-14.65-52.42V79.72c0-5.29,3.19-10.25,9.53-13.21l45.51-17V33.8L579.18,53.91c-5.9,2.58-13.47,5.42-13.47,12.11V99.31a125.87,125.87,0,0,0,18.52,66.26A115.3,115.3,0,0,0,636,211.25Z" style="fill:#ebebeb"></path><path d="M636,211.25a68.42,68.42,0,0,0,11.15-4.78,100.33,100.33,0,0,0,23.61-18.57,127.31,127.31,0,0,0,16.42-22.06,121.17,121.17,0,0,0,18-66.89l0-27.49c0-13.69-7-14.7-13-17.28L635.41,33.8V49.5l46,17.29c6.34,3,9.53,7.91,9.53,13.2v23.35a99.53,99.53,0,0,1-14.66,52.42C668,169.23,655.74,183.12,636,191.93Z" style="fill:#e0e0e0"></path><path d="M650.47,101.57l.06-4.49a14.74,14.74,0,0,0-29.48,0l-.06,4.57a8.25,8.25,0,0,0-7,8.15v26.5a8.25,8.25,0,0,0,8.25,8.25h27.52a8.25,8.25,0,0,0,8.25-8.25v-26.5A8.25,8.25,0,0,0,650.47,101.57Zm-10.75,28.12h-7.19l1.12-5.2a4.38,4.38,0,1,1,4.76-.08Zm7.57-28.16H624.17l.06-4.45a11.57,11.57,0,0,1,23.13,0Z" style="fill:#e0e0e0"></path><path d="M589.58,101.25a18.4,18.4,0,0,1-.85-4.61,79.47,79.47,0,0,1-.46-11.31c.06-2.21.21-4.31.41-6.22a13.17,13.17,0,0,1,1.27-5,5.83,5.83,0,0,1,2.48-2.5c.77-.36,1.25-.34,1.26-.29a6.48,6.48,0,0,0-3.12,3.1,13.84,13.84,0,0,0-1,4.8c-.15,1.89-.27,4-.33,6.16-.13,4.38,0,8.35.17,11.22S589.73,101.23,589.58,101.25Z" style="fill:#fff"></path><path d="M590.42,115.74c-.28,0-.53-1.36-.56-3.06s.16-3.07.43-3.07.53,1.36.56,3S590.69,115.73,590.42,115.74Z" style="fill:#fff"></path></g><g id="freepik--Floor--inject-40"><path d="M717.62,445.41c0,.15-152.65.26-340.9.26s-340.92-.11-340.92-.26,152.61-.26,340.92-.26S717.62,445.27,717.62,445.41Z" style="fill:#263238"></path></g><g id="freepik--Device--inject-40"><path d="M596,62.06H162A13.55,13.55,0,0,0,148.48,75.6V382.09A13.55,13.55,0,0,0,162,395.64H328.57s10.59,32.76-22.25,49.71H462.05S425,432.64,434.5,395.64H596a13.55,13.55,0,0,0,13.54-13.55V75.6A13.54,13.54,0,0,0,596,62.06Z" style="fill:#455a64"></path><path d="M384.79,363.4c5.9,8.44-3.34,17.68-11.78,11.78a2.94,2.94,0,0,1-.72-.73c-5.89-8.43,3.34-17.66,11.77-11.77A3.12,3.12,0,0,1,384.79,363.4Z" style="fill:#263238"></path><path d="M165.65,67.67H592.33a9.7,9.7,0,0,1,9.7,9.7v262.2a0,0,0,0,1,0,0H156a0,0,0,0,1,0,0V77.37A9.7,9.7,0,0,1,165.65,67.67Z" style="fill:#fff"></path><path d="M165.11,67.67H594.51A7.52,7.52,0,0,1,602,75.19V90.26a0,0,0,0,1,0,0H156a0,0,0,0,1,0,0V76.82A9.15,9.15,0,0,1,165.11,67.67Z" style="fill:#ebebeb"></path><circle cx="170.16" cy="79.44" r="3.13" style="fill:#e0e0e0"></circle><circle cx="179.5" cy="79.44" r="3.13" style="fill:#e0e0e0"></circle><circle cx="188.38" cy="79.44" r="3.13" style="fill:#e0e0e0"></circle><path d="M518.38,395.68c0,.15-61.75.26-137.9.26s-137.92-.11-137.92-.26,61.74-.26,137.92-.26S518.38,395.54,518.38,395.68Z" style="fill:#263238"></path><path d="M447.89,128.52l-68-25.05-67.35,24.72c-8.6,4.16-16.14,6.66-16.14,14.87V184a157.64,157.64,0,0,0,22.19,81.42c12.56,20.91,32,42.44,62,56.13,27.53-9.17,48.08-33.62,60.64-54.54a157.58,157.58,0,0,0,22.19-81.41V148.78C463.37,137.06,457.32,131.34,447.89,128.52Z" style="fill:#FF0099"></path><g style="opacity:0.8"><path d="M447.89,128.52l-68-25.05-67.35,24.72c-8.6,4.16-16.14,6.66-16.14,14.87V184a157.64,157.64,0,0,0,22.19,81.42c12.56,20.91,32,42.44,62,56.13,27.53-9.17,48.08-33.62,60.64-54.54a157.58,157.58,0,0,0,22.19-81.41V148.78C463.37,137.06,457.32,131.34,447.89,128.52Z" style="fill:#fff"></path></g><path d="M421.41,232.08h-12.5v-68a29,29,0,1,0-58.07,0v68h-12.5v-68a41.54,41.54,0,1,1,83.07,0Z" style="fill:#FF0099"></path><g style="opacity:0.4"><path d="M421.41,232.08h-12.5v-68a29,29,0,1,0-58.07,0v68h-12.5v-68a41.54,41.54,0,1,1,83.07,0Z"></path></g><rect x="323.9" y="201.82" width="111.95" height="71.82" rx="5.81" style="fill:#FF0099"></rect><g style="opacity:0.5"><path d="M389.23,228.38a9.36,9.36,0,1,0-11.91,9v14h5.11v-14A9.33,9.33,0,0,0,389.23,228.38Z"></path></g><path d="M329.87,266.83c-.26,0-.46-12-.46-26.75s.2-26.75.46-26.75.47,12,.47,26.75S330.13,266.83,329.87,266.83Z" style="fill:#fafafa"></path><path d="M372.55,240.37s-.44-.14-1.1-.62a11.23,11.23,0,0,1-2.41-2.46,13.11,13.11,0,0,1,4.66-19.68A11.5,11.5,0,0,1,377,216.5a3,3,0,0,1,1.26-.07c0,.18-1.77.35-4.2,1.76a13,13,0,0,0-4.43,18.73A27.68,27.68,0,0,0,372.55,240.37Z" style="fill:#fafafa"></path><path d="M464,305.66s.27-.38.81-1.09l.45-.6c.16-.23.3-.5.46-.79a11.83,11.83,0,0,0,1-2.05c.16-.41.35-.83.51-1.29s.27-1,.41-1.48a9.26,9.26,0,0,0,.34-1.65,17,17,0,0,0,.26-1.82,34.9,34.9,0,0,0-.4-8.77c-1-6.57-3.8-14.29-8.06-22.69a176.78,176.78,0,0,0-17.3-26.9,275.43,275.43,0,0,0-25.8-29,315.13,315.13,0,0,0-33.86-28.91c-6.33-4.64-13-9.15-20-13.4a194.88,194.88,0,0,0-22.24-11.66,104,104,0,0,0-24.74-7.75,43.91,43.91,0,0,0-13.2-.33,24.89,24.89,0,0,0-6.37,1.85A15.88,15.88,0,0,0,287.6,157a24.62,24.62,0,0,0-1.11,6.54,43.74,43.74,0,0,0,1.81,13.08,103.75,103.75,0,0,0,10.52,23.7,194.19,194.19,0,0,0,14.12,20.78c5,6.5,10.26,12.61,15.59,18.36a315.2,315.2,0,0,0,32.58,30.37,276.85,276.85,0,0,0,31.73,22.33,176.83,176.83,0,0,0,28.69,14.12c8.83,3.28,16.82,5.16,23.46,5.42a34.1,34.1,0,0,0,8.76-.6,17.59,17.59,0,0,0,1.77-.45,11.69,11.69,0,0,0,1.61-.53l1.42-.58c.44-.21.84-.45,1.22-.65a12.92,12.92,0,0,0,1.93-1.26c.26-.2.52-.36.73-.54l.54-.52,1-.93-.95,1-.54.54c-.21.18-.46.35-.73.56a13,13,0,0,1-1.92,1.28c-.38.21-.78.45-1.22.67l-1.43.59a10.13,10.13,0,0,1-1.61.54,17.74,17.74,0,0,1-1.78.48,34.67,34.67,0,0,1-8.8.65c-6.67-.23-14.69-2.1-23.55-5.35a176.29,176.29,0,0,1-28.78-14.09,272.57,272.57,0,0,1-31.81-22.31,314.62,314.62,0,0,1-32.66-30.37c-5.35-5.76-10.6-11.88-15.63-18.39a195.57,195.57,0,0,1-14.17-20.82,104.67,104.67,0,0,1-10.58-23.82A44.31,44.31,0,0,1,286,163.54a24.76,24.76,0,0,1,1.14-6.69,16.34,16.34,0,0,1,8.91-10,24.9,24.9,0,0,1,6.51-1.89,44,44,0,0,1,13.36.33,103.89,103.89,0,0,1,24.86,7.8A191.79,191.79,0,0,1,363,164.82c7,4.26,13.72,8.78,20,13.43a316.11,316.11,0,0,1,33.89,29,275.54,275.54,0,0,1,25.78,29.06,176.7,176.7,0,0,1,17.27,27c4.24,8.43,7,16.19,8,22.78a34.62,34.62,0,0,1,.35,8.82,16.79,16.79,0,0,1-.26,1.83,11.56,11.56,0,0,1-.36,1.66c-.15.52-.29,1-.42,1.49s-.37.88-.53,1.29a11.43,11.43,0,0,1-1.06,2.05c-.17.29-.31.56-.47.79l-.47.59C464.25,305.31,464,305.66,464,305.66Z" style="fill:#FF0099"></path><path d="M496,228.39s-.05-.46-.12-1.35q0-.34-.06-.75c0-.28-.12-.57-.18-.9a12.41,12.41,0,0,0-.6-2.22c-.15-.41-.29-.85-.47-1.3s-.45-.89-.69-1.38A10.48,10.48,0,0,0,493,219c-.33-.48-.61-1-1-1.52a34.56,34.56,0,0,0-6.14-6.28c-5.13-4.22-12.35-8.14-21.11-11.57a177.27,177.27,0,0,0-30.82-8.56,275.39,275.39,0,0,0-38.54-4.45,316,316,0,0,0-44.52,1c-7.81.74-15.79,1.82-23.86,3.33a194.1,194.1,0,0,0-24.36,6.1A104.19,104.19,0,0,0,279,207.73,44,44,0,0,0,269,216.27a24.46,24.46,0,0,0-3.52,5.62,15.87,15.87,0,0,0,0,13,24.8,24.8,0,0,0,3.52,5.62A43.73,43.73,0,0,0,279,249a104,104,0,0,0,23.64,10.69,193.24,193.24,0,0,0,24.36,6.1c8.07,1.52,16.05,2.59,23.86,3.33a314.48,314.48,0,0,0,44.52,1,275.21,275.21,0,0,0,38.54-4.45,176.77,176.77,0,0,0,30.82-8.56c8.77-3.43,16-7.35,21.11-11.57a34.23,34.23,0,0,0,6.14-6.28,16.82,16.82,0,0,0,1-1.52,9.93,9.93,0,0,0,.84-1.46l.69-1.38c.18-.45.32-.89.47-1.3a12.41,12.41,0,0,0,.6-2.22c.06-.32.14-.62.18-.89s0-.53.06-.75c.07-.9.12-1.35.12-1.35s0,.46-.07,1.35c0,.23,0,.48,0,.76s-.11.57-.17.9a12.51,12.51,0,0,1-.58,2.23c-.15.42-.28.86-.47,1.32l-.67,1.39a10.42,10.42,0,0,1-.84,1.47c-.33.49-.61,1.05-1,1.55A34.31,34.31,0,0,1,486,245.7c-5.13,4.26-12.36,8.22-21.13,11.68A177.18,177.18,0,0,1,434,266a275.45,275.45,0,0,1-38.59,4.53,315.25,315.25,0,0,1-44.59-.93c-7.82-.74-15.81-1.81-23.91-3.32a195,195,0,0,1-24.42-6.1,104.49,104.49,0,0,1-23.76-10.74,44.65,44.65,0,0,1-10.18-8.65,25,25,0,0,1-3.6-5.76,16.39,16.39,0,0,1,0-13.37,25.28,25.28,0,0,1,3.6-5.75,44.19,44.19,0,0,1,10.19-8.64,104,104,0,0,1,23.75-10.73,193.3,193.3,0,0,1,24.42-6.11c8.09-1.51,16.08-2.58,23.9-3.32a315.19,315.19,0,0,1,44.59-.92A274,274,0,0,1,434,190.74a176.81,176.81,0,0,1,30.85,8.65c8.78,3.47,16,7.42,21.14,11.68a34.66,34.66,0,0,1,6.13,6.35,17.06,17.06,0,0,1,1,1.54,11.68,11.68,0,0,1,.84,1.47l.67,1.4c.19.45.32.9.47,1.31a12.38,12.38,0,0,1,.58,2.24c.06.32.13.62.17.9s0,.53,0,.75C496,227.93,496,228.39,496,228.39Z" style="fill:#FF0099"></path><path d="M453.56,132.2s-.4-.24-1.14-.73l-.63-.41c-.24-.14-.53-.26-.82-.41a12.68,12.68,0,0,0-2.12-.88c-.42-.13-.85-.3-1.32-.43L446,129a10.68,10.68,0,0,0-1.67-.23c-.59,0-1.19-.15-1.83-.13a35,35,0,0,0-8.73,1c-6.47,1.46-14,4.77-22.07,9.6a176.5,176.5,0,0,0-25.65,19.11,275.11,275.11,0,0,0-27.13,27.73,315.8,315.8,0,0,0-26.51,35.78c-4.2,6.63-8.24,13.59-12,20.9a195.2,195.2,0,0,0-10.1,23,103.89,103.89,0,0,0-6,25.22,43.62,43.62,0,0,0,.59,13.19,24.4,24.4,0,0,0,2.28,6.23,15.85,15.85,0,0,0,10.24,7.95,24.43,24.43,0,0,0,6.6.66,43.73,43.73,0,0,0,12.92-2.71,104,104,0,0,0,22.93-12.13,193.6,193.6,0,0,0,19.75-15.52c6.14-5.45,11.88-11.1,17.25-16.82a314.79,314.79,0,0,0,28-34.59A275.18,275.18,0,0,0,445,204.08a177.39,177.39,0,0,0,12.11-29.6c2.66-9,4-17.13,3.79-23.77a34.21,34.21,0,0,0-1.2-8.7,16.89,16.89,0,0,0-.58-1.74,10.57,10.57,0,0,0-.63-1.56c-.24-.48-.46-1-.67-1.38s-.51-.81-.74-1.17a12.39,12.39,0,0,0-1.39-1.84c-.21-.25-.4-.49-.59-.69l-.56-.51c-.66-.6-1-.92-1-.92l1,.88.56.5c.2.2.39.44.61.69a11.19,11.19,0,0,1,1.41,1.83c.24.37.51.75.76,1.17l.68,1.38a10.13,10.13,0,0,1,.66,1.57c.18.56.45,1.12.59,1.75a34.74,34.74,0,0,1,1.26,8.73c.23,6.67-1.08,14.8-3.72,23.86a176.7,176.7,0,0,1-12.06,29.69,275.39,275.39,0,0,1-20.07,33.27,315.29,315.29,0,0,1-28,34.67c-5.38,5.74-11.12,11.4-17.27,16.87a193.78,193.78,0,0,1-19.8,15.56,103.84,103.84,0,0,1-23,12.19A43.86,43.86,0,0,1,324,319.56a25.23,25.23,0,0,1-6.75-.68,16.37,16.37,0,0,1-10.57-8.2,24.88,24.88,0,0,1-2.33-6.37,44.34,44.34,0,0,1-.6-13.34,104.41,104.41,0,0,1,6.07-25.35,194.82,194.82,0,0,1,10.14-23c3.76-7.32,7.81-14.29,12-20.93a315.46,315.46,0,0,1,26.58-35.8,275.49,275.49,0,0,1,27.22-27.73A176,176,0,0,1,411.57,139c8.12-4.82,15.67-8.11,22.18-9.55a34.09,34.09,0,0,1,8.77-1,17.63,17.63,0,0,1,1.84.14,10.78,10.78,0,0,1,1.68.24l1.52.32c.47.14.9.3,1.32.44a11.91,11.91,0,0,1,2.12.91c.3.15.58.28.82.42l.62.42C453.19,131.93,453.56,132.2,453.56,132.2Z" style="fill:#FF0099"></path><circle cx="259.47" cy="279.35" r="4.31" style="fill:#FF0099"></circle><path d="M505.78,142.7a4.31,4.31,0,1,1-4.31-4.32A4.31,4.31,0,0,1,505.78,142.7Z" style="fill:#FF0099"></path><path d="M289.74,290.48a1.1,1.1,0,1,1-1.09-1.1A1.1,1.1,0,0,1,289.74,290.48Z" style="fill:#FF0099"></path><path d="M313.13,169.66a1.1,1.1,0,1,1-1.1-1.1A1.1,1.1,0,0,1,313.13,169.66Z" style="fill:#FF0099"></path><path d="M484.12,228.39a1.1,1.1,0,1,1-1.09-1.1A1.09,1.09,0,0,1,484.12,228.39Z" style="fill:#FF0099"></path><path d="M499.35,177.3a1.1,1.1,0,1,1-1.09-1.09A1.09,1.09,0,0,1,499.35,177.3Z" style="fill:#FF0099"></path></g></svg>