<svg xmlns="http://www.w3.org/2000/svg" viewBox="0 0 500 500"><g id="freepik--background-complete--inject-76"><path d="M368.73,226.41l9.69,6,1.84-3a2.71,2.71,0,0,1,2.56-1.26c.56,0,1.13.06,1.7.05a2.69,2.69,0,0,1,2.46,1.42l1.66,3.07,10.06-5.39L397,224.27a2.7,2.7,0,0,1,.19-2.83c.32-.47.62-1,.9-1.45a2.69,2.69,0,0,1,2.46-1.43l3.49.11.35-11.41-3.5-.1a2.71,2.71,0,0,1-2.36-1.59c-.12-.26-.25-.51-.38-.75s-.27-.5-.42-.73a2.71,2.71,0,0,1,0-2.84l1.86-3-9.7-6-1.85,3a2.71,2.71,0,0,1-2.55,1.26,16.1,16.1,0,0,0-1.7-.06,2.71,2.71,0,0,1-2.46-1.41l-1.65-3.08-10.06,5.39,1.65,3.08a2.72,2.72,0,0,1-.18,2.83,14.45,14.45,0,0,0-.89,1.45,2.73,2.73,0,0,1-2.46,1.43l-3.5-.11-.36,11.41,3.5.11a2.69,2.69,0,0,1,2.35,1.58c.12.26.25.51.39.76s.27.49.41.73a2.73,2.73,0,0,1,0,2.85Zm7.2-9.66a9.34,9.34,0,1,1,12.65,3.83A9.34,9.34,0,0,1,375.93,216.75Z" style="fill:#ebebeb"></path><path d="M408.78,190.93l4,6.93,2.12-1.23a1.9,1.9,0,0,1,2,.07,10.62,10.62,0,0,0,1,.6A1.9,1.9,0,0,1,419,199v2.44h8V199a1.89,1.89,0,0,1,1-1.69,9.69,9.69,0,0,0,1-.6,1.9,1.9,0,0,1,2-.07l2.12,1.23,4-6.93L435,189.71a1.89,1.89,0,0,1-.93-1.77c0-.19,0-.39,0-.59s0-.39,0-.58A1.89,1.89,0,0,1,435,185l2.14-1.23-4-6.93-2.12,1.23a1.92,1.92,0,0,1-2-.07,9.55,9.55,0,0,0-1-.6,1.89,1.89,0,0,1-1-1.69v-2.44h-8v2.44a1.91,1.91,0,0,1-1.05,1.69,9.55,9.55,0,0,0-1,.6,1.92,1.92,0,0,1-2,.07l-2.12-1.23-4,6.93,2.13,1.22a1.93,1.93,0,0,1,.93,1.76c0,.2,0,.4,0,.59s0,.4,0,.59a1.92,1.92,0,0,1-.94,1.77Zm7.65-3.58a6.55,6.55,0,1,1,6.54,6.56A6.54,6.54,0,0,1,416.43,187.35Z" style="fill:#ebebeb"></path><path d="M113.73,95.11,121,107.78l3.88-2.24a3.48,3.48,0,0,1,3.65.12,19.79,19.79,0,0,0,1.89,1.1,3.48,3.48,0,0,1,1.93,3.09v4.48H147v-4.48a3.48,3.48,0,0,1,1.93-3.09,19.79,19.79,0,0,0,1.89-1.1,3.48,3.48,0,0,1,3.65-.12l3.88,2.24,7.31-12.67-3.9-2.24a3.48,3.48,0,0,1-1.7-3.23c0-.36,0-.72,0-1.08s0-.72,0-1.07a3.47,3.47,0,0,1,1.69-3.22L165.68,82l-7.31-12.67-3.89,2.25a3.5,3.5,0,0,1-3.65-.13,19.7,19.7,0,0,0-1.89-1.09A3.48,3.48,0,0,1,147,67.28V62.8H132.39v4.48a3.48,3.48,0,0,1-1.92,3.09,19.7,19.7,0,0,0-1.89,1.09,3.5,3.5,0,0,1-3.65.13L121,69.34,113.73,82l3.89,2.25a3.47,3.47,0,0,1,1.7,3.22q0,.54,0,1.08t0,1.08a3.48,3.48,0,0,1-1.7,3.23Zm14-6.55a12,12,0,1,1,12,12A12,12,0,0,1,127.72,88.56Z" style="fill:#ebebeb"></path><path d="M382,115a32.92,32.92,0,1,1-32.56-37.75v32.92Z" style="fill:#ebebeb"></path><path d="M389.09,103.46a31.89,31.89,0,0,1-.36,4.82l-32.56-4.82V70.54a32.9,32.9,0,0,1,32.92,32.92Z" style="fill:#dbdbdb"></path><rect x="366.17" y="127.98" width="35.01" height="0.83" style="fill:#c7c7c7"></rect><path d="M403.63,131.26a2.87,2.87,0,1,1,2.87-2.87A2.88,2.88,0,0,1,403.63,131.26Zm0-4.91a2,2,0,1,0,2,2A2,2,0,0,0,403.63,126.35Z" style="fill:#c7c7c7"></path><rect x="412.53" y="126.55" width="27.19" height="1.23" style="fill:#c7c7c7"></rect><rect x="412.53" y="129" width="15.39" height="1.23" style="fill:#c7c7c7"></rect><path d="M168.59,280.39S144.46,277,150.1,247.88C150.1,247.88,177.07,253.93,168.59,280.39Z" style="fill:#ebebeb"></path><path d="M167.37,274.31a45.44,45.44,0,0,0-1.64-4.34l-.06-.55c0-.4-.07-.81-.1-1.21-.07-.87-.12-1.74-.17-2.61-.11-1.74-.22-3.48-.25-5.22a.07.07,0,1,0-.14,0c0,1.75,0,3.49,0,5.23q.06,1.31.15,2.61c0,.2,0,.39,0,.58a51.4,51.4,0,0,0-4.84-8.27c-.83-1.16-1.7-2.28-2.64-3.35s-2-2.15-3-3.24c-.06-.07-.17,0-.1.11a43.81,43.81,0,0,1,4.65,6.18c.73,1.11,1.42,2.25,2.08,3.41l-.22-.09-.86-.35-2-.74L154.48,261c-.07,0-.13.11,0,.14,1.28.51,2.55,1.05,3.82,1.6l1.87.8c.31.14.63.26.94.39a3.07,3.07,0,0,0,.64.23c.49.87,1,1.75,1.42,2.64a65.4,65.4,0,0,1,2.95,7c.05.16.11.33.17.5a13.85,13.85,0,0,0-2-1l-2.5-1.14c-1.69-.77-3.37-1.56-5-2.48-.08,0-.16.09-.07.13,1.66.91,3.28,1.87,4.94,2.77.83.45,1.67.89,2.52,1.3a7.77,7.77,0,0,0,2.26.91,28.78,28.78,0,0,1,1.59,6.85c.26,3.29.23,6.61.31,9.91,0,.06.08.06.09,0,.24-3,.37-6,.39-9A26.22,26.22,0,0,0,167.37,274.31Z" style="fill:#c7c7c7"></path><path d="M163.66,257.18a28.41,28.41,0,0,0-.24,5.13,0,0,0,1,0,.07,0c.1-1.7.11-3.4.31-5.1C163.81,257.12,163.67,257.08,163.66,257.18Z" style="fill:#c7c7c7"></path><path d="M156.76,258.64a18.6,18.6,0,0,1-3.1-1.53c-.08-.05-.16.08-.08.13a11.93,11.93,0,0,0,3.14,1.5C156.78,258.75,156.82,258.66,156.76,258.64Z" style="fill:#c7c7c7"></path><path d="M169.36,326.64c0-2.67-.07-5.33-.1-8,0-8.86-.12-17.71-.28-26.57q-.18-10.54-.49-21.09a.11.11,0,0,0-.06-.09l0-5.76c0-.05-.06-.07-.12-.07s-.11,0-.11.08c0,1.92,0,3.84,0,5.77a.09.09,0,0,0,0,.08c-.36,12.51-.67,25-.75,37.54,0,2.55,0,5.09,0,7.64q-.13,12.24-.1,24.48l0,3.89c0,7.47.08,14.93.08,22.4,0,.4.45.6.93.62s1.11-.19,1.11-.65c0-8.24.06-16.47.06-24.7C169.38,337,169.4,331.83,169.36,326.64Z" style="fill:#c7c7c7"></path><path d="M163.49,321.72s-6-13.16-18.41-13.45-24.86,18.45-24.86,18.45,13,9.89,26.62,6.38C160,329.71,163.49,321.72,163.49,321.72Z" style="fill:#ebebeb"></path><path d="M166,323.72a13.89,13.89,0,0,0-5.45-4,8.42,8.42,0,0,0-1.17-.81c-.46-.3-.92-.6-1.37-.91l-2.84-1.85c-1.92-1.27-3.86-2.5-5.74-3.82-.07,0-.15.07-.09.12,1.84,1.35,3.65,2.73,5.52,4,1,.67,1.92,1.34,2.9,2l.71.49c-.34-.11-.69-.2-1-.28a26.6,26.6,0,0,0-5.63-.69c-.88-.3-1.8-.52-2.69-.78-1.42-.4-2.85-.77-4.28-1.14-2.82-.72-5.66-1.36-8.5-2-.09,0-.12.11,0,.14,2.78.76,5.54,1.58,8.31,2.36l4,1.13,1,.3a33.86,33.86,0,0,0-10.7,2.26,44.8,44.8,0,0,0-9.4,5.11c-.08.05,0,.18.07.13a43.48,43.48,0,0,1,10.49-4.58l-.36.33-1.56,1.48c-1,1-2.09,2-3.11,3-.07.07,0,.16.11.1,1.07-.92,2.12-1.85,3.18-2.79l1.56-1.38.79-.72.25-.22a42.63,42.63,0,0,1,5.31-1.06,31.21,31.21,0,0,1,7.1-.09c-.13.16-.26.32-.39.46L152,321.17c-.74.85-1.46,1.71-2.18,2.57-1.48,1.75-2.82,3.61-4.28,5.37a.07.07,0,0,0,.11.1c1.55-1.72,3.22-3.34,4.76-5.07l2.3-2.61c.36-.41.71-.83,1.06-1.24.2-.23.4-.45.57-.69.23,0,.46,0,.68.08,3.21.49,6.55,1.41,9.08,3.54a9.45,9.45,0,0,1,3.38,8.29c0,.27.4.33.47.07A8.94,8.94,0,0,0,166,323.72Z" style="fill:#c7c7c7"></path><path d="M145.81,323.43l-3,3.38a35.74,35.74,0,0,0-2.8,3.35s0,.09.08.06a33.27,33.27,0,0,0,3-3.3l2.86-3.39A.07.07,0,0,0,145.81,323.43Z" style="fill:#c7c7c7"></path><path d="M134.19,321.24c-1.66-.07-3.33,0-5-.23a.07.07,0,1,0,0,.14,46.21,46.21,0,0,0,5,.15A0,0,0,1,0,134.19,321.24Z" style="fill:#c7c7c7"></path><path d="M161.9,302.75s-14.19.9-20.79-8.45S136,271.58,136,271.58s14.9,1.81,20.82,8.53S161.9,302.75,161.9,302.75Z" style="fill:#ebebeb"></path><path d="M168.55,316.74c-.49-1.52-1.1-3-1.67-4.5s-1.14-2.85-1.76-4.25a86.39,86.39,0,0,0-4.26-8.36c-1-1.73-2.07-3.4-3.17-5.05,0-.25-.08-.5-.12-.76-.06-.43-.12-.87-.19-1.31-.14-.9-.3-1.8-.45-2.69-.33-2-.73-3.91-1-5.87,0-.09-.16-.09-.15,0,.29,1.94.48,3.89.75,5.82.13,1,.26,1.91.4,2.86.06.34.11.69.17,1a101.08,101.08,0,0,0-7-9.1c-.34-.4-.69-.78-1-1.16,0-.11-.09-.22-.13-.33l-.31-.81c-.21-.56-.41-1.13-.61-1.69-.4-1.11-.76-2.23-1.06-3.37,0-.1-.16-.05-.14,0,.29,1.16.59,2.32.93,3.47.16.56.35,1.11.54,1.65l.1.28c-1.81-2-3.7-3.88-5.61-5.77a.07.07,0,0,0-.1.11,103.2,103.2,0,0,1,10,12.31,8,8,0,0,0-1-.26c-1.09-.21-2.2-.37-3.3-.51-2.31-.29-4.62-.59-6.92-.95-.09,0-.13.13,0,.14,2.2.44,4.37.93,6.56,1.43,1,.24,2.06.44,3.1.65a19.62,19.62,0,0,1,2.49.71c.23.32.47.65.69,1,1,1.51,2,3.06,3,4.62l-1.45-.29c-1.09-.21-2.19-.41-3.29-.59-2.17-.35-4.33-.73-6.47-1.22-.09,0-.13.13,0,.15,2.17.51,4.32,1.1,6.47,1.67,1,.28,2.09.53,3.14.77l1.58.34a5.37,5.37,0,0,0,.64.11q3.1,5,5.81,10.31c.79,1.54,1.56,3.1,2.29,4.67s1.41,3.25,2.11,4.89C168.15,317.23,168.67,317.1,168.55,316.74Z" style="fill:#c7c7c7"></path><path d="M154,284.14c-.27-1.35-.55-2.7-.85-4.05,0-.09-.16,0-.14,0,.27,1.33.52,2.66.76,4a38.25,38.25,0,0,0,.81,4s0,0,0,0A28,28,0,0,0,154,284.14Z" style="fill:#c7c7c7"></path><path d="M145.76,283.74c-.66-.32-1.36-.59-2-.85l-1.08-.43-.54-.22a2,2,0,0,1-.6-.26c-.11-.08-.18.11-.07.13a2.24,2.24,0,0,1,.6.25l.54.24,1,.46a22.16,22.16,0,0,0,2.09.83A.08.08,0,0,0,145.76,283.74Z" style="fill:#c7c7c7"></path><path d="M176.42,291.59s8.59-16,21.65-18.52S219.12,284,219.12,284s-9.52,12.17-21.51,14.3S176.42,291.59,176.42,291.59Z" style="fill:#ebebeb"></path><path d="M206.82,280.26a35.15,35.15,0,0,0-10.24.12c.19-.11.39-.22.58-.31l2.9-1.5c2-1,4-2.15,6.13-3a.08.08,0,1,0-.06-.14c-2,1-4.16,1.75-6.21,2.7-1,.47-2,1-3,1.49-.65.34-1.36.66-2,1.07a36.05,36.05,0,0,0-8.31,2.76l1.64-1.78c1.21-1.33,2.41-2.73,3.75-3.95.07-.06,0-.16-.11-.1-1.36,1.24-2.81,2.39-4.13,3.68-.65.63-1.26,1.28-1.86,1.95-.3.33-.6.67-.88,1a34.47,34.47,0,0,0-17.52,23.65c0,.09.12.14.14,0a39.45,39.45,0,0,1,9.61-16.24,37.74,37.74,0,0,1,17.5-10.13,38.62,38.62,0,0,1,12.07-1.1A.13.13,0,0,0,206.82,280.26Z" style="fill:#c7c7c7"></path><path d="M199.23,274.54a34.52,34.52,0,0,0-2.9,1.91,19,19,0,0,0-2.52,2.31c-.06.07,0,.17.12.1.86-.75,1.73-1.5,2.63-2.22a29.43,29.43,0,0,1,2.75-2A.07.07,0,1,0,199.23,274.54Z" style="fill:#c7c7c7"></path><path d="M206.4,277.25c-.48.21-1,.38-1.46.58l-1.45.6c-.11.05-.06.22,0,.17L205,278l1.45-.62C206.53,277.36,206.49,277.22,206.4,277.25Z" style="fill:#c7c7c7"></path><path d="M174.7,311.77S177,327.68,189,333.25s26.55,0,26.55,0S209.77,298.83,174.7,311.77Z" style="fill:#ebebeb"></path><path d="M207.27,322.9c-1.11-.13-2.2-.31-3.3-.51l-1.6-.31-.84-.17c-.33-.3-.64-.6-1-.89a48.26,48.26,0,0,0-7.32-5.31,42.06,42.06,0,0,0-4.38-2.25h.22l3.94.17c2.63.12,5.25.18,7.87.35.1,0,.09-.14,0-.15-2.63-.18-5.25-.46-7.88-.69l-3.83-.34-2-.17-.5-.06c-.69-.25-1.37-.49-2.07-.71a18.78,18.78,0,0,0-10.13-.56c-3,.77-6,2.75-6.79,5.92a.1.1,0,0,0,.19.07c1.12-2.65,4.06-4,6.72-4.53a16.11,16.11,0,0,1,5.41-.11,13.72,13.72,0,0,0,.61,2.41l1,3.35c.68,2.24,1.43,4.45,2.09,6.69,0,.09.17.05.14,0-.55-2.24-1-4.49-1.56-6.73-.26-1.09-.54-2.19-.81-3.29a18.58,18.58,0,0,0-.61-2.26,31.29,31.29,0,0,1,3.11.73,44.6,44.6,0,0,1,5.42,2c.18,1.13.43,2.26.69,3.38.33,1.4.69,2.79,1.14,4.16,0,.09.15.05.13,0a2,2,0,0,1,0-.26h0c-.26-1.3-.55-2.6-.83-3.9-.22-1-.42-2.1-.65-3.14a44.56,44.56,0,0,1,4.36,2.21c0,.32.11.65.16.95.08.54.18,1.09.28,1.63.23,1.23.47,2.45.77,3.66a57.24,57.24,0,0,0,2.05,6.92s0,.06,0,.09l.06.08c.05.06.14,0,.12-.07-.55-2.36-1.18-4.7-1.7-7.06-.26-1.18-.52-2.37-.76-3.55l-.33-1.78c0-.17-.06-.35-.09-.54a49.67,49.67,0,0,1,4.66,3.11,50.6,50.6,0,0,1,7.13,6.51c.09.1.26,0,.18-.14-.92-1.2-1.82-2.37-2.85-3.48-.61-.64-1.23-1.27-1.87-1.88l.2,0,1.69.25c1.1.15,2.21.26,3.32.38C207.32,323.05,207.36,322.91,207.27,322.9Z" style="fill:#c7c7c7"></path><path d="M198.86,328.29h0c0-.13,0-.27-.07-.41s-.12-.34-.14-.52h0c-.24-1.06-.45-2.13-.64-3.2a.07.07,0,0,0-.13,0,12.87,12.87,0,0,0,.91,4.15s.09,0,.08,0Z" style="fill:#c7c7c7"></path><path d="M188.85,328c0-.05,0-.07-.07-.07-.34-1.41-.66-2.82-.95-4.24-.16-.74-.31-1.49-.46-2.23-.07-.41-.15-.81-.22-1.21a3.38,3.38,0,0,0-.26-1,.07.07,0,0,0-.13,0,7.14,7.14,0,0,0,.3,2.14c.15.78.3,1.55.47,2.32.35,1.57.74,3.14,1.18,4.68,0,.09.17.07.16,0S188.85,328.15,188.85,328Z" style="fill:#c7c7c7"></path><path d="M206.18,318.32c-2.19-.3-4.37-.62-6.56-.88-.09,0-.13.13,0,.14,2.18.32,4.37.59,6.56.88C206.23,318.47,206.27,318.33,206.18,318.32Z" style="fill:#c7c7c7"></path><path d="M168.58,274.46s-7.32-32.11,27.18-45.11C195.76,229.35,205.32,271.62,168.58,274.46Z" style="fill:#ebebeb"></path><path d="M176,256.25l.37-.23,2-1.09,4-2.24c2.63-1.47,5.23-3,7.88-4.44.09-.05,0-.17-.07-.13-2.66,1.45-5.36,2.8-8,4.21l-4,2.09-1.62.86c1.15-2.19,2.38-4.33,3.73-6.39,1.81-2.75,3.78-5.37,5.84-7.93a.12.12,0,0,0-.17-.17,55.2,55.2,0,0,0-8,9.78c0-.11,0-.22,0-.33,0-.8.06-1.6.07-2.4,0-1.56-.05-3.13,0-4.7,0-.1-.14-.09-.15,0-.06,1.55-.25,3.08-.34,4.63,0,.77-.07,1.54-.1,2.31,0,.41-.05.89,0,1.34-.71,1.13-1.4,2.28-2,3.44a61.94,61.94,0,0,0-3.09,6.47c0-.8-.08-1.6-.13-2.4-.1-1.76-.31-3.51-.39-5.27a.07.07,0,1,0-.14,0c0,1.76,0,3.52,0,5.28,0,.87,0,1.75.11,2.63l.06,1a57.92,57.92,0,0,0-2.61,8.83,95.68,95.68,0,0,0-1.28,9.7s0,0,0,0a53.34,53.34,0,0,1,1.83-8.64c.43-1.52.88-3,1.37-4.52,1.43-.68,2.81-1.52,4.19-2.29s2.89-1.58,4.34-2.37c2.87-1.58,5.75-3.19,8.72-4.58.08,0,0-.17-.08-.13-3,1.37-6,2.66-9,4.15-1.47.73-2.92,1.52-4.35,2.33-1.2.68-2.43,1.35-3.58,2.13.34-1,.68-2,1.07-3A85.14,85.14,0,0,1,176,256.25Z" style="fill:#c7c7c7"></path><path d="M173.12,248.91c0-.1-.16-.1-.15,0,.12,1.83.18,3.66.38,5.49,0,.1.16.1.16,0C173.45,252.56,173.25,250.74,173.12,248.91Z" style="fill:#c7c7c7"></path><path d="M189.66,255c-2.16.87-4.34,1.69-6.49,2.59-.06,0,0,.13,0,.1,2.18-.81,4.33-1.7,6.5-2.55C189.79,255.15,189.75,255,189.66,255Z" style="fill:#c7c7c7"></path><path d="M192.94,240.23a55.72,55.72,0,0,0-6.14,3.29c-.1.06,0,.21.1.15,2-1.17,4-2.29,6.12-3.32C193.1,240.31,193,240.19,192.94,240.23Z" style="fill:#c7c7c7"></path><polygon points="185.59 392.51 150.97 392.51 154.49 343.91 182.08 343.91 185.59 392.51" style="fill:#dbdbdb"></polygon><polygon points="153.78 353.76 182.79 353.76 182.07 343.91 154.49 343.91 153.78 353.76" style="fill:#c7c7c7"></polygon><rect x="151.53" y="340.81" width="33.52" height="8.46" transform="translate(336.57 690.07) rotate(180)" style="fill:#dbdbdb"></rect></g><g id="freepik--Shadow--inject-76"><ellipse cx="260.42" cy="416.72" rx="208.62" ry="13.87" style="fill:#ebebeb"></ellipse><ellipse cx="116.08" cy="452.84" rx="90.06" ry="11.91" style="fill:#ebebeb"></ellipse></g><g id="freepik--Floor--inject-76"><polygon points="29.71 392.48 84.78 392.24 139.85 392.15 250 391.98 360.15 392.15 415.22 392.23 470.29 392.48 415.22 392.72 360.15 392.81 250 392.98 139.85 392.81 84.78 392.72 29.71 392.48" style="fill:#263238"></polygon></g><g id="freepik--Device--inject-76"><polygon points="202.98 415.44 448.42 415.44 467.42 248.75 221.98 248.75 202.98 415.44" style="fill:#455a64"></polygon><polygon points="216.35 404.26 437.6 404.26 454.05 259.93 232.81 259.93 216.35 404.26" style="fill:#fff"></polygon><rect x="130.95" y="404.26" width="315.75" height="11.18" transform="translate(577.65 819.7) rotate(180)" style="fill:#455a64"></rect><rect x="62.38" y="404.26" width="315.75" height="11.18" transform="translate(440.51 819.7) rotate(180)" style="fill:#37474f"></rect><polygon points="250.93 274.93 273.59 274.8 296.24 274.76 341.55 274.68 386.86 274.76 409.52 274.8 432.17 274.93 409.52 275.05 386.86 275.09 341.55 275.18 296.24 275.09 273.59 275.05 250.93 274.93" style="fill:#c7c7c7"></polygon><polygon points="250.03 282.32 272.68 282.19 295.34 282.15 340.65 282.07 385.96 282.15 408.61 282.19 431.27 282.32 408.61 282.44 385.96 282.48 340.65 282.57 295.34 282.48 272.68 282.44 250.03 282.32" style="fill:#c7c7c7"></polygon><polygon points="249.12 289.71 271.77 289.58 294.43 289.54 339.74 289.46 385.05 289.54 407.7 289.58 430.36 289.71 407.7 289.83 385.05 289.87 339.74 289.96 294.43 289.87 271.77 289.83 249.12 289.71" style="fill:#c7c7c7"></polygon><polygon points="248.21 297.1 270.87 296.98 293.52 296.93 338.83 296.85 384.14 296.93 406.8 296.98 429.45 297.1 406.8 297.22 384.14 297.26 338.83 297.35 293.52 297.26 270.87 297.22 248.21 297.1" style="fill:#c7c7c7"></polygon><polygon points="247.3 304.49 269.96 304.37 292.61 304.32 337.92 304.24 383.23 304.32 405.89 304.37 428.54 304.49 405.89 304.61 383.23 304.65 337.92 304.74 292.61 304.65 269.96 304.61 247.3 304.49" style="fill:#c7c7c7"></polygon><polygon points="246.4 311.88 269.05 311.76 291.71 311.71 337.02 311.63 382.33 311.71 404.98 311.76 427.64 311.88 404.98 312 382.33 312.05 337.02 312.13 291.71 312.04 269.05 312 246.4 311.88" style="fill:#c7c7c7"></polygon><polygon points="245.49 319.27 268.14 319.15 290.8 319.1 336.11 319.02 381.42 319.1 404.07 319.15 426.73 319.27 404.07 319.39 381.42 319.44 336.11 319.52 290.8 319.44 268.14 319.39 245.49 319.27" style="fill:#c7c7c7"></polygon><polygon points="244.58 326.66 267.24 326.54 289.89 326.49 335.2 326.41 380.51 326.49 403.17 326.54 425.82 326.66 403.17 326.78 380.51 326.83 335.2 326.91 289.89 326.82 267.24 326.78 244.58 326.66" style="fill:#c7c7c7"></polygon><polygon points="243.68 334.05 266.33 333.93 288.99 333.88 334.3 333.8 379.6 333.88 402.26 333.93 424.91 334.05 402.26 334.17 379.6 334.22 334.3 334.3 288.99 334.22 266.33 334.17 243.68 334.05" style="fill:#c7c7c7"></polygon><polygon points="242.77 341.44 265.42 341.32 288.08 341.27 333.39 341.19 378.7 341.27 401.35 341.32 424.01 341.44 401.35 341.56 378.7 341.61 333.39 341.69 288.08 341.61 265.42 341.56 242.77 341.44" style="fill:#c7c7c7"></polygon><polygon points="241.86 348.83 264.51 348.71 287.17 348.67 332.48 348.58 377.79 348.67 400.44 348.71 423.1 348.83 400.44 348.95 377.79 349 332.48 349.08 287.17 349 264.51 348.95 241.86 348.83" style="fill:#c7c7c7"></polygon><polygon points="240.95 356.22 263.61 356.1 286.26 356.06 331.57 355.97 376.88 356.06 399.54 356.1 422.19 356.22 399.54 356.34 376.88 356.39 331.57 356.47 286.26 356.39 263.61 356.34 240.95 356.22" style="fill:#c7c7c7"></polygon><polygon points="240.04 363.61 262.7 363.49 285.36 363.45 330.67 363.36 375.98 363.45 398.63 363.49 421.29 363.61 398.63 363.74 375.98 363.78 330.67 363.86 285.36 363.78 262.7 363.73 240.04 363.61" style="fill:#c7c7c7"></polygon><polygon points="239.14 371 261.79 370.88 284.45 370.84 329.76 370.75 375.07 370.84 397.72 370.88 420.38 371 397.72 371.13 375.07 371.17 329.76 371.25 284.45 371.17 261.79 371.13 239.14 371" style="fill:#c7c7c7"></polygon><polygon points="238.23 378.39 260.88 378.27 283.54 378.23 328.85 378.14 374.16 378.23 396.81 378.27 419.47 378.39 396.81 378.52 374.16 378.56 328.85 378.64 283.54 378.56 260.88 378.51 238.23 378.39" style="fill:#c7c7c7"></polygon><polygon points="277.49 326.66 263.75 326.66 256.34 387.01 270.08 387.01 277.49 326.66" style="fill:#FF0099"></polygon><polygon points="304.79 311.94 291.05 311.94 281.83 387.01 295.58 387.01 304.79 311.94" style="fill:#FF0099"></polygon><polygon points="329.36 319.52 315.62 319.52 307.33 387.01 321.07 387.01 329.36 319.52" style="fill:#FF0099"></polygon><polygon points="357.61 297.1 343.87 297.1 332.83 387.01 346.57 387.01 357.61 297.1" style="fill:#FF0099"></polygon><polygon points="381.63 309.15 367.88 309.15 358.32 387.01 372.07 387.01 381.63 309.15" style="fill:#FF0099"></polygon><polygon points="410.42 282.32 396.67 282.32 383.82 387.01 397.56 387.01 410.42 282.32" style="fill:#FF0099"></polygon><path d="M256.49,269.74l-3.2,29.37c-1.06,9.79-2.23,19.56-3.35,29.34l-3.4,29.35L243,387.12l-.92-1c14.69,0,29.39-.1,44.08,0l44.08.1,44.08.31,22,.24,22,.31-22,.31-22,.24-44.08.3-44.08.11c-14.69.07-29.39,0-44.08,0H241l.13-1,3.67-29.31,3.8-29.3c1.28-9.76,2.51-19.53,3.85-29.28Z" style="fill:#c7c7c7"></path><polygon points="269.17 394.45 255.42 394.45 255.58 393.21 269.32 393.21 269.17 394.45" style="fill:#c7c7c7"></polygon><polygon points="294.66 394.45 280.92 394.45 281.07 393.21 294.82 393.21 294.66 394.45" style="fill:#c7c7c7"></polygon><polygon points="320.16 394.45 306.42 394.45 306.57 393.21 320.31 393.21 320.16 394.45" style="fill:#c7c7c7"></polygon><polygon points="345.66 394.45 331.91 394.45 332.06 393.21 345.81 393.21 345.66 394.45" style="fill:#c7c7c7"></polygon><polygon points="371.15 394.45 357.41 394.45 357.56 393.21 371.31 393.21 371.15 394.45" style="fill:#c7c7c7"></polygon><polygon points="396.65 394.45 382.9 394.45 383.06 393.21 396.8 393.21 396.65 394.45" style="fill:#c7c7c7"></polygon><polygon points="232.01 266.93 232.81 259.93 454.05 259.93 453.25 266.93 232.01 266.93" style="fill:#263238"></polygon><path d="M238.65,263.43a2,2,0,0,1-2,1.74,1.51,1.51,0,0,1-1.53-1.74,2,2,0,0,1,2-1.74A1.5,1.5,0,0,1,238.65,263.43Z" style="fill:#c7c7c7"></path><path d="M245.75,263.43a2,2,0,0,1-1.95,1.74,1.51,1.51,0,0,1-1.53-1.74,2,2,0,0,1,2-1.74A1.5,1.5,0,0,1,245.75,263.43Z" style="fill:#fff"></path><path d="M252.86,263.43a2,2,0,0,1-2,1.74,1.5,1.5,0,0,1-1.52-1.74,2,2,0,0,1,2-1.74A1.51,1.51,0,0,1,252.86,263.43Z" style="fill:#FF0099"></path></g><g id="freepik--Rocket--inject-76"><path d="M222.23,184.43c-.9,0-34.36,15.44-36.34,53.47-1.82,35,22.35,68.17,25.47,66,3.82-2.69-2.67-24.47,4.76-49.39,2.63-8.84,14.15-16.68,14.15-16.68Z" style="fill:#FF0099"></path><path d="M230.28,237.8a52.81,52.81,0,0,0-9.16,8.25c-5-11.11-14.26-31.85-20.26-45.29,9.8-11.33,20.86-16.33,21.37-16.33Z" style="opacity:0.1"></path><path d="M307.39,184.49c.89,0,34.33,15.49,36.26,53.52,1.77,35-22.46,68.14-25.57,65.94-3.82-2.7,2.71-24.47-4.68-49.4-2.62-8.84-14.14-16.7-14.14-16.7Z" style="fill:#FF0099"></path><path d="M328.86,201c-6.06,13.56-15.36,34.34-20.28,45.32a53.13,53.13,0,0,0-9.31-8.45l8.12-53.37C307.9,184.48,319.05,189.55,328.86,201Z" style="opacity:0.1"></path><path d="M290.11,271.92l-50.49,0s-23.78-42.53-21-93.23c1.42-25.31,8-50.79,16-71.88C245.6,77.65,259.15,57,265,57s19.38,20.68,30.32,49.82c7.91,21.09,14.49,46.59,15.87,71.9C314,229.42,290.11,271.92,290.11,271.92Z" style="fill:#ebebeb"></path><path d="M295.15,172.15A29.12,29.12,0,1,1,266.06,143,29.11,29.11,0,0,1,295.15,172.15Z" style="fill:#c7c7c7"></path><path d="M294.12,169.19A29.12,29.12,0,1,1,265,140.05,29.11,29.11,0,0,1,294.12,169.19Z" style="fill:#FF0099"></path><circle cx="265" cy="169.17" r="20.19" transform="translate(70.45 416.14) rotate(-84.32)" style="fill:#fff"></circle><path d="M285.2,169.16a20,20,0,0,1-1.37,7.32L272.33,188a20.25,20.25,0,0,1-12.72.62l24.85-24.85A20.06,20.06,0,0,1,285.2,169.16Z" style="fill:#ebebeb"></path><path d="M268,149.19,245,172.13a20.62,20.62,0,0,1-.22-3A20.2,20.2,0,0,1,265,149,20.62,20.62,0,0,1,268,149.19Z" style="fill:#ebebeb"></path><path d="M282.68,159.39l-27.45,27.44a16.35,16.35,0,0,1-1.54-1l28-28C282.06,158.33,282.38,158.85,282.68,159.39Z" style="fill:#ebebeb"></path><path d="M295.34,106.82l-60.69,0C245.6,77.65,259.15,57,265,57S284.4,77.68,295.34,106.82Z" style="fill:#FF0099"></path><path d="M245.1,100.51a1.7,1.7,0,1,1-1.7-1.7A1.7,1.7,0,0,1,245.1,100.51Z" style="fill:#fff"></path><path d="M255.9,100.52a1.7,1.7,0,1,1-1.7-1.7A1.7,1.7,0,0,1,255.9,100.52Z" style="fill:#fff"></path><path d="M266.69,100.53A1.7,1.7,0,1,1,265,98.82,1.7,1.7,0,0,1,266.69,100.53Z" style="fill:#fff"></path><path d="M277.49,100.53a1.7,1.7,0,1,1-1.7-1.7A1.7,1.7,0,0,1,277.49,100.53Z" style="fill:#fff"></path><path d="M288.29,100.54a1.7,1.7,0,1,1-1.7-1.7A1.7,1.7,0,0,1,288.29,100.54Z" style="fill:#fff"></path><path d="M245,264.12a1.7,1.7,0,1,1-1.7-1.7A1.7,1.7,0,0,1,245,264.12Z" style="fill:#c7c7c7"></path><path d="M255.83,264.13a1.7,1.7,0,1,1-1.7-1.7A1.7,1.7,0,0,1,255.83,264.13Z" style="fill:#c7c7c7"></path><path d="M266.62,264.14a1.7,1.7,0,1,1-1.69-1.7A1.69,1.69,0,0,1,266.62,264.14Z" style="fill:#c7c7c7"></path><path d="M277.42,264.14a1.7,1.7,0,1,1-1.7-1.7A1.7,1.7,0,0,1,277.42,264.14Z" style="fill:#c7c7c7"></path><path d="M288.22,264.15a1.7,1.7,0,1,1-1.7-1.7A1.7,1.7,0,0,1,288.22,264.15Z" style="fill:#c7c7c7"></path><polygon points="285.45 287.1 244.39 287.06 242.47 271.89 287.39 271.92 285.45 287.1" style="fill:#FF0099"></polygon><polygon points="287.39 271.93 286.44 279.31 243.21 277.69 242.48 271.89 287.39 271.93" style="opacity:0.1"></polygon><path d="M171.22,361a7.25,7.25,0,1,1-7.25-7.25A7.25,7.25,0,0,1,171.22,361Z" style="fill:#FF0099;opacity:0.6000000000000001"></path><circle cx="176.5" cy="347.14" r="3.53" style="fill:#FF0099;opacity:0.6000000000000001"></circle><path d="M335.1,357.48a3.53,3.53,0,1,1-3.53-3.54A3.53,3.53,0,0,1,335.1,357.48Z" style="fill:#FF0099;opacity:0.6000000000000001"></path><path d="M405.84,389.72a3.53,3.53,0,1,1-3.53-3.53A3.54,3.54,0,0,1,405.84,389.72Z" style="fill:#FF0099;opacity:0.6000000000000001"></path><path d="M400.43,400.05a4.21,4.21,0,0,1-4.22,4.21H133.59a4.21,4.21,0,0,1,0-8.42,4.15,4.15,0,0,1,1,.12,8.3,8.3,0,0,1,14.24-5.81l.08,0c0-.51-.08-1-.08-1.55a15.68,15.68,0,0,1,15.68-15.68,15.49,15.49,0,0,1,6.9,1.6,11.19,11.19,0,0,1,21.6-3.4,15.69,15.69,0,0,1,16.28-7,20.09,20.09,0,0,1-.32-3.66A21.22,21.22,0,0,1,244,344.31a4.22,4.22,0,0,1,3.74-2.28,4.33,4.33,0,0,1,1.62.32L253.33,287h23.14l3.94,55.32A4.33,4.33,0,0,1,282,342a4.22,4.22,0,0,1,3.74,2.28,21.22,21.22,0,0,1,34.75,19.74,15.47,15.47,0,0,1,3-.29,15.65,15.65,0,0,1,13.28,7.33,11.19,11.19,0,0,1,21.6,3.4,15.49,15.49,0,0,1,6.9-1.6A15.68,15.68,0,0,1,381,388.57c0,.52,0,1-.08,1.55l.08,0A8.3,8.3,0,0,1,395.21,396a4.15,4.15,0,0,1,1-.12A4.22,4.22,0,0,1,400.43,400.05Z" style="fill:#FF0099;opacity:0.6000000000000001"></path><polygon points="333.84 365.38 328.38 366.39 327.16 372.15 325.94 366.39 320.48 365.38 325.91 364.05 327.16 358.61 328.4 364.05 333.84 365.38" style="fill:#fdfdfd"></polygon><polygon points="280.72 319.21 275.26 320.22 274.04 325.98 272.81 320.22 267.35 319.21 272.79 317.88 274.04 312.44 275.28 317.88 280.72 319.21" style="fill:#fdfdfd"></polygon><polygon points="201.35 376.34 198.29 376.91 197.61 380.13 196.93 376.91 193.88 376.34 196.92 375.6 197.61 372.56 198.31 375.6 201.35 376.34" style="fill:#fdfdfd"></polygon><polygon points="365.6 385.94 362.54 386.51 361.86 389.72 361.18 386.51 358.13 385.94 361.17 385.2 361.86 382.16 362.56 385.2 365.6 385.94" style="fill:#fdfdfd"></polygon><polygon points="159.34 397.22 156.28 397.78 155.6 401 154.92 397.78 151.87 397.22 154.91 396.48 155.6 393.44 156.29 396.48 159.34 397.22" style="fill:#fdfdfd"></polygon><polygon points="292.12 394.54 289.07 395.11 288.39 398.32 287.7 395.11 284.65 394.54 287.69 393.8 288.39 390.76 289.08 393.8 292.12 394.54" style="fill:#fdfdfd"></polygon><polygon points="269.77 310.46 266.72 311.02 266.04 314.24 265.36 311.02 262.3 310.45 265.34 309.71 266.04 306.67 266.73 309.71 269.77 310.46" style="fill:#fdfdfd"></polygon><path d="M372.82,392.9a.89.89,0,0,0,0,1.77A.89.89,0,0,0,372.82,392.9Z" style="fill:#fdfdfd"></path><path d="M258,299.29a.89.89,0,0,0,0,1.77A.89.89,0,0,0,258,299.29Z" style="fill:#fdfdfd"></path><path d="M182.46,397.22a.89.89,0,0,0,0,1.77A.89.89,0,0,0,182.46,397.22Z" style="fill:#fdfdfd"></path><path d="M238.55,385.06a.89.89,0,0,0,0,1.77A.89.89,0,0,0,238.55,385.06Z" style="fill:#fdfdfd"></path><path d="M350.65,377a.63.63,0,0,0,0,1.25A.63.63,0,0,0,350.65,377Z" style="fill:#fdfdfd"></path><path d="M273.3,367.6a.63.63,0,0,0,0,1.26A.63.63,0,0,0,273.3,367.6Z" style="fill:#fdfdfd"></path><path d="M216.68,355.37a.63.63,0,0,0,0,1.25A.63.63,0,0,0,216.68,355.37Z" style="fill:#fdfdfd"></path><path d="M313.55,357.92a1.7,1.7,0,0,0,0,3.4A1.7,1.7,0,0,0,313.55,357.92Z" style="fill:#fdfdfd"></path><path d="M224.69,349.61a1.7,1.7,0,0,0,0,3.4A1.7,1.7,0,0,0,224.69,349.61Z" style="fill:#fdfdfd"></path></g></svg>