<svg xmlns="http://www.w3.org/2000/svg" viewBox="0 0 750 500"><g id="freepik--background-complete--inject-172"><rect x="165.22" y="50.28" width="60.41" height="82.67" style="fill:#f5f5f5"></rect><rect x="149.91" y="60.69" width="60.41" height="82.67" style="fill:#e0e0e0"></rect><path d="M495.07,173.74l-.39,0h-1.17l-4.55,0-17.07.06L413,174h-.16l0-.16a14.64,14.64,0,0,1,14.44-18.74l-.21.29a12.27,12.27,0,0,1-.46-4,13,13,0,0,1,6.74-11,13.36,13.36,0,0,1,12.49.07l-.31.11a19.46,19.46,0,0,1,11.43-10.65,18.28,18.28,0,0,1,14.5.68,19.78,19.78,0,0,1,9,9.81,18.73,18.73,0,0,1,1.1,11.75l-.16-.19a14,14,0,0,1,6.82,1,14.3,14.3,0,0,1,5.06,3.46,9.16,9.16,0,0,1,1.59,2.29,12.73,12.73,0,0,1,.85,2.42,22,22,0,0,1,.58,4.44,25.58,25.58,0,0,1-.53,6.12,13.59,13.59,0,0,1-.43,1.55l-.18.5" style="fill:#ebebeb"></path><path d="M652.14,134.45a15.05,15.05,0,1,0,17.49,15.9h0l4.13-.69L676,145l3.22,3.74,5.17-.86,2.21-4.64,3.22,3.74,4.44-.74,1.35-2.83,2,2.28,2.59-.43,2.84-3.76-4.87-5.36-30.75,5.11A15.05,15.05,0,0,0,652.14,134.45Zm-8.38,16.66a4.32,4.32,0,1,1,5,3.55A4.32,4.32,0,0,1,643.76,151.11Z" style="fill:#ebebeb"></path><path d="M636.87,249.49l1.86,34.1a2.3,2.3,0,0,0,2.28,2.18l61.35.44a2.3,2.3,0,0,0,2.32-2.28l.19-26.54a2.3,2.3,0,0,0-2.3-2.32l-37.73,0a2.25,2.25,0,0,1-1.62-.68l-6.51-6.5a2.33,2.33,0,0,0-1.61-.68l-15.91-.11A2.3,2.3,0,0,0,636.87,249.49Z" style="fill:#ebebeb"></path><rect x="637.74" y="250.82" width="67.04" height="40.06" transform="translate(2 -4.91) rotate(0.42)" style="fill:#f5f5f5"></rect><path d="M632.53,254.13l4.81,41.8a1.48,1.48,0,0,0,1.46,1.32l65.33.47a1.47,1.47,0,0,0,1.48-1.35l3.6-41.75a1.47,1.47,0,0,0-1.47-1.6L634,252.48A1.47,1.47,0,0,0,632.53,254.13Z" style="fill:#ebebeb"></path><path d="M629.13,437.75c-15.55-10.86-19.08-31-18.46-49.16.1-3-.23-6.22,1.21-8.87s4.79-4.47,7.5-3.2c2.25,1.06,3.23,3.68,4.49,5.84a17.65,17.65,0,0,0,7.09,6.78c1.93,1,4.32,1.61,6.22.56,2.61-1.44,2.92-5.05,2.9-8.06q-.06-8.42-.11-16.82a27.89,27.89,0,0,1,.91-8.94c.94-2.86,3-5.51,5.87-6.32s6.4.85,7,3.8a27.52,27.52,0,0,1,.08,3.75c.09,1.25.67,2.63,1.85,3s2.41-.5,3.31-1.39c3.11-3,5.21-6.95,7.18-10.84s3.89-7.88,6.71-11.2,6.71-5.94,11-6.18,8.91,2.42,10,6.65-1.39,8.55-4.08,12a67.23,67.23,0,0,1-14,13.33A5.52,5.52,0,0,0,673.5,365c-.65,2,1.25,4,3.23,4.66,2.24.75,4.68.51,7,.79s4.89,1.31,5.78,3.53c1.23,3.07-1.34,6.3-3.87,8.41a57.55,57.55,0,0,1-17,9.83c-2.22.81-4.55,1.52-6.33,3.08s-2.87,4.26-1.79,6.38,3.85,2.8,6.17,2.37,4.39-1.69,6.6-2.52c4.14-1.56,9.48-1.28,12.13,2.3a9.49,9.49,0,0,1,1,8.42,22,22,0,0,1-4.56,7.44A57.84,57.84,0,0,1,657.15,437c-9.59,3.33-18.48,4.23-28,.74" style="fill:#ebebeb"></path><path d="M628.89,451.19a132.85,132.85,0,0,1,4.92-24.8,270.1,270.1,0,0,1,10.71-29l3.19-7.46c1.06-2.45,2.1-4.88,3.27-7.19a133.38,133.38,0,0,1,7.49-12.9c2.58-4,5.17-7.68,7.62-11.11s4.81-6.58,7.07-9.36A106.8,106.8,0,0,1,684.82,337c1.48-1.34,2.67-2.34,3.48-3l.93-.76a1.51,1.51,0,0,1,.33-.24l-.29.29c-.23.19-.52.46-.9.79-.79.7-2,1.73-3.41,3.09a114.14,114.14,0,0,0-11.5,12.41c-2.24,2.79-4.56,5.95-7,9.38s-5,7.14-7.57,11.12A136.29,136.29,0,0,0,651.47,383c-1.16,2.3-2.2,4.7-3.25,7.16l-3.2,7.46a278.44,278.44,0,0,0-10.72,29,135.16,135.16,0,0,0-5,24.69" style="fill:#e0e0e0"></path><path d="M651.14,382.68a6.7,6.7,0,0,1-.29-1.29c-.16-.83-.35-2-.56-3.54-.43-3-.87-7.15-1.35-11.74s-1-8.73-1.45-11.71c-.23-1.49-.43-2.7-.57-3.53a5.45,5.45,0,0,1-.17-1.31,6,6,0,0,1,.38,1.27c.21.81.47,2,.75,3.5.57,3,1.14,7.13,1.61,11.72s.87,8.62,1.19,11.75c.15,1.41.28,2.61.38,3.56A5.7,5.7,0,0,1,651.14,382.68Z" style="fill:#e0e0e0"></path><path d="M689.84,375.44a7.67,7.67,0,0,1-1.55.19c-1,.09-2.43.21-4.2.41-3.54.39-8.42,1.09-13.76,2.09s-10.15,2.15-13.6,3.06c-1.73.45-3.12.85-4.08,1.12a9.24,9.24,0,0,1-1.51.37,8.48,8.48,0,0,1,1.45-.58c.94-.34,2.32-.79,4-1.29,3.43-1,8.23-2.21,13.59-3.23a135.89,135.89,0,0,1,13.84-1.93c1.78-.16,3.22-.22,4.22-.24A10.56,10.56,0,0,1,689.84,375.44Z" style="fill:#e0e0e0"></path><path d="M634.29,425.68a2.26,2.26,0,0,1-.27-.48c-.18-.37-.4-.84-.66-1.4-.57-1.21-1.35-3-2.28-5.22-1.87-4.43-4.25-10.63-6.79-17.51s-4.87-13.11-6.64-17.57c-.87-2.17-1.58-4-2.12-5.29l-.56-1.44a2.3,2.3,0,0,1-.17-.52,2.26,2.26,0,0,1,.27.48l.66,1.4c.57,1.21,1.35,3,2.28,5.22,1.87,4.43,4.25,10.63,6.79,17.52s4.87,13.1,6.64,17.56l2.12,5.29.56,1.44A2.3,2.3,0,0,1,634.29,425.68Z" style="fill:#e0e0e0"></path><path d="M685.71,409.1a2.12,2.12,0,0,1-.51.21l-1.5.5-5.5,1.79c-4.65,1.51-11.05,3.66-18.11,6s-13.5,4.5-18.18,5.91c-2.34.71-4.24,1.26-5.56,1.61l-1.52.4a2.73,2.73,0,0,1-.54.11,2.08,2.08,0,0,1,.51-.22l1.49-.49,5.51-1.79c4.65-1.51,11-3.66,18.11-6.06s13.49-4.49,18.17-5.9c2.34-.71,4.24-1.26,5.56-1.61l1.53-.4A2.59,2.59,0,0,1,685.71,409.1Z" style="fill:#e0e0e0"></path></g><g id="freepik--Floor--inject-172"><path d="M692.4,451.23c0,.15-143.77.26-321.08.26s-321.12-.11-321.12-.26S193.94,451,371.32,451,692.4,451.09,692.4,451.23Z" style="fill:#263238"></path></g><g id="freepik--User--inject-172"><rect x="34.82" y="226.75" width="113.06" height="75.72" style="fill:#fafafa"></rect><path d="M117.16,272.68h-3V254.55a7.9,7.9,0,0,0-15.79,0v18.13h-3V254.55a10.91,10.91,0,0,1,21.81,0Z" style="fill:#263238"></path><rect x="91.34" y="264.61" width="29.83" height="19.14" rx="3.39" style="fill:#263238"></rect><path d="M106.26,274.18a2.49,2.49,0,1,1,2.49-2.49,2.49,2.49,0,0,1-2.49,2.49" style="fill:#455a64"></path><rect x="105.58" y="272.68" width="1.36" height="5.13" style="fill:#455a64"></rect><path d="M90.6,272.46a12.05,12.05,0,0,0,7.19-11.16c0-6.67-5-12.1-11.27-12.13s-11.34,5.35-11.37,12a12,12,0,0,0,7.22,11.27C65,275.09,65.74,294,65.74,294l41.19.19S107.87,275.07,90.6,272.46Z" style="fill:#FF0099"></path><path d="M147.87,302.48s0-.48,0-1.39,0-2.25,0-4c0-3.51,0-8.65-.06-15.23,0-13.16-.06-32.06-.1-55.11l.2.21-113,0h0l.26-.26c0,27,0,52.63,0,75.73l-.23-.24,81.43.11,23.28.07,6.19,0h1.6l.55,0h-2.09l-6.15,0-23.22.07-81.59.11h-.24v-.23c0-23.1,0-48.75,0-75.73v-.26h.27l113.05.06h.21v.2c0,23.1-.08,42.05-.11,55.24,0,6.56,0,11.69-.05,15.19,0,1.73,0,3.05,0,4S147.87,302.48,147.87,302.48Z" style="fill:#263238"></path><path d="M147.85,235.85c0,.14-25.3.26-56.49.26s-56.49-.12-56.49-.26,25.29-.26,56.49-.26S147.85,235.71,147.85,235.85Z" style="fill:#263238"></path><path d="M42.26,231.31a1.17,1.17,0,1,1-1.17-1.17A1.17,1.17,0,0,1,42.26,231.31Z" style="fill:#263238"></path><path d="M46.09,231.31a1.17,1.17,0,0,1-2.34,0,1.17,1.17,0,0,1,2.34,0Z" style="fill:#263238"></path><path d="M50.2,231.31A1.17,1.17,0,1,1,49,230.14,1.17,1.17,0,0,1,50.2,231.31Z" style="fill:#263238"></path><path d="M147.87,302.48s0-.48,0-1.39,0-2.25,0-4c0-3.51,0-8.65-.06-15.23,0-13.16-.06-32.06-.1-55.11l.2.21-113,0h0l.26-.26c0,27,0,52.63,0,75.73l-.23-.24,81.43.11,23.28.07,6.19,0h1.6l.55,0h-2.09l-6.15,0-23.22.07-81.59.11h-.24v-.23c0-23.1,0-48.75,0-75.73v-.26h.27l113.05.06h.21v.2c0,23.1-.08,42.05-.11,55.24,0,6.56,0,11.69-.05,15.19,0,1.73,0,3.05,0,4S147.87,302.48,147.87,302.48Z" style="fill:#263238"></path><path d="M90.61,305c-.14,0-.26-.56-.26-1.25s.12-1.25.26-1.25.27.56.27,1.25S90.76,305,90.61,305Z" style="fill:#263238"></path><path d="M90.61,315.92a7.55,7.55,0,0,1-.26-2.74,7.47,7.47,0,0,1,.26-2.73,7.11,7.11,0,0,1,.27,2.73A7.18,7.18,0,0,1,90.61,315.92Z" style="fill:#263238"></path><path d="M90.61,326.86a7.55,7.55,0,0,1-.26-2.74,7.47,7.47,0,0,1,.26-2.73,7.11,7.11,0,0,1,.27,2.73A7.18,7.18,0,0,1,90.61,326.86Z" style="fill:#263238"></path><path d="M90.61,337.8a7.55,7.55,0,0,1-.26-2.74,7.47,7.47,0,0,1,.26-2.73,7.11,7.11,0,0,1,.27,2.73A7.18,7.18,0,0,1,90.61,337.8Z" style="fill:#263238"></path><path d="M90.61,348.74a7.55,7.55,0,0,1-.26-2.74,7.47,7.47,0,0,1,.26-2.73,7.11,7.11,0,0,1,.27,2.73A7.18,7.18,0,0,1,90.61,348.74Z" style="fill:#263238"></path><path d="M93.11,356.71a6.27,6.27,0,0,1-2.5.26l-.26-.26h0v-.94c0-.3,0-.57.06-.8,0-.45.11-.73.18-.73s.14.28.19.73c0,.23,0,.5,0,.8l0,.47v.47h0c-.12-.12.25.26-.27-.26A6.27,6.27,0,0,1,93.11,356.71Z" style="fill:#263238"></path><path d="M102.94,356.71a6.11,6.11,0,0,1-2.46.26,6.08,6.08,0,0,1-2.45-.26,6.08,6.08,0,0,1,2.45-.26A6.11,6.11,0,0,1,102.94,356.71Z" style="fill:#263238"></path><path d="M112.77,356.71a6.11,6.11,0,0,1-2.46.26,6.11,6.11,0,0,1-2.46-.26,6.11,6.11,0,0,1,2.46-.26A6.11,6.11,0,0,1,112.77,356.71Z" style="fill:#263238"></path><path d="M122.6,356.71a6.11,6.11,0,0,1-2.46.26,6.11,6.11,0,0,1-2.46-.26,6.11,6.11,0,0,1,2.46-.26A6.11,6.11,0,0,1,122.6,356.71Z" style="fill:#263238"></path><path d="M132.42,356.71a11.72,11.72,0,0,1-4.91,0,11.72,11.72,0,0,1,4.91,0Z" style="fill:#263238"></path><path d="M142.25,356.71a11.72,11.72,0,0,1-4.91,0,11.72,11.72,0,0,1,4.91,0Z" style="fill:#263238"></path><path d="M152.08,356.71a11.77,11.77,0,0,1-4.92,0,11.77,11.77,0,0,1,4.92,0Z" style="fill:#263238"></path><path d="M161.9,356.71a11.72,11.72,0,0,1-4.91,0,11.72,11.72,0,0,1,4.91,0Z" style="fill:#263238"></path><path d="M171.73,356.71a11.72,11.72,0,0,1-4.91,0,11.72,11.72,0,0,1,4.91,0Z" style="fill:#263238"></path><path d="M181.56,356.71a11.77,11.77,0,0,1-4.92,0,11.77,11.77,0,0,1,4.92,0Z" style="fill:#263238"></path><path d="M191.38,356.71a11.72,11.72,0,0,1-4.91,0,11.72,11.72,0,0,1,4.91,0Z" style="fill:#263238"></path><path d="M198.8,356.71c0,.14-.56.26-1.25.26s-1.25-.12-1.25-.26.56-.26,1.25-.26S198.8,356.57,198.8,356.71Z" style="fill:#263238"></path></g><g id="freepik--Document--inject-172"><rect x="139.56" y="73.39" width="60.41" height="82.67" style="fill:#fff"></rect><path d="M200,156s0-.14,0-.41,0-.67,0-1.17c0-1,0-2.56,0-4.52,0-3.95,0-9.71-.08-17,0-14.55-.11-35.18-.18-59.59l.27.27-60.4.07h0l.3-.3v82.67l-.24-.24,43.87.09,12.21.06,3.21,0,1.12,0s-.35,0-1.06,0l-3.17,0-12.16.07-44,.16h-.25v-.25c0-23.2-.07-51.79-.11-82.67v-.3h.31l60.4,0h.28v.28c0,24.48-.07,45.18-.1,59.77,0,7.25,0,13-.06,16.92,0,1.94,0,3.43,0,4.46,0,.49,0,.87,0,1.14A2.61,2.61,0,0,1,200,156Z" style="fill:#263238"></path><path d="M176.49,90c0,.17-6.57.3-14.68.31s-14.68-.12-14.68-.29,6.57-.31,14.68-.31S176.49,89.83,176.49,90Z" style="fill:#263238"></path><path d="M192.37,97.17c0,.17-10.13.31-22.62.32s-22.62-.12-22.62-.29,10.13-.31,22.62-.31S192.37,97,192.37,97.17Z" style="fill:#263238"></path><path d="M192.38,104.67c0,.16-10.13.3-22.62.31s-22.62-.12-22.62-.28,10.13-.31,22.62-.32S192.38,104.5,192.38,104.67Z" style="fill:#263238"></path><path d="M192.38,112.16c0,.17-10.12.31-22.61.32s-22.62-.12-22.62-.29,10.12-.31,22.62-.32S192.38,112,192.38,112.16Z" style="fill:#263238"></path><path d="M192.39,119.65c0,.17-10.13.31-22.62.32s-22.62-.12-22.62-.28,10.13-.31,22.62-.32S192.39,119.49,192.39,119.65Z" style="fill:#263238"></path><path d="M192.39,127.15c0,.17-10.12.31-22.61.32s-22.62-.12-22.62-.29,10.12-.31,22.62-.32S192.39,127,192.39,127.15Z" style="fill:#263238"></path><path d="M192.4,134.64c0,.17-10.13.31-22.62.32s-22.62-.12-22.62-.28,10.13-.31,22.62-.32S192.4,134.48,192.4,134.64Z" style="fill:#263238"></path><path d="M171.48,142.15c0,.17-5.44.31-12.15.31s-12.16-.12-12.16-.29,5.44-.31,12.16-.31S171.48,142,171.48,142.15Z" style="fill:#263238"></path><circle cx="194.72" cy="149.78" r="12.27" style="fill:#FF0099"></circle><path d="M201.76,145.05c.52.49-1.89,3.92-5.38,7.67-.57.6-1.12,1.17-1.65,1.7l-.85.84-.85-.71c-3.05-2.56-5.05-4.76-4.68-5.24s3,.93,6.23,3.26l-1.69.13c.49-.56,1-1.16,1.58-1.76C198,147.19,201.23,144.56,201.76,145.05Z" style="fill:#e0e0e0"></path><path d="M165.19,160.57a12.15,12.15,0,0,1,0-5,12.15,12.15,0,0,1,0,5Z" style="fill:#263238"></path><path d="M165.19,170.57a12.15,12.15,0,0,1,0-5,12.15,12.15,0,0,1,0,5Z" style="fill:#263238"></path><path d="M165.19,180.57a12.15,12.15,0,0,1,0-5,12.15,12.15,0,0,1,0,5Z" style="fill:#263238"></path><path d="M165.19,190.57a12.15,12.15,0,0,1,0-5,12.15,12.15,0,0,1,0,5Z" style="fill:#263238"></path><path d="M165.19,200.57a12.15,12.15,0,0,1,0-5,12.15,12.15,0,0,1,0,5Z" style="fill:#263238"></path><path d="M165.19,210.57a12.15,12.15,0,0,1,0-5,12.15,12.15,0,0,1,0,5Z" style="fill:#263238"></path><path d="M165.19,220.57a12.15,12.15,0,0,1,0-5,12.15,12.15,0,0,1,0,5Z" style="fill:#263238"></path><path d="M165.19,230.57a12.15,12.15,0,0,1,0-5,12.15,12.15,0,0,1,0,5Z" style="fill:#263238"></path><path d="M170,235.74a6.31,6.31,0,0,1-2.5.26,12.58,12.58,0,0,1-2.33-.16l-.11,0,0-.07c0-.11.06-.17.09-.17s.07.06.1.17l-.1-.09a11.51,11.51,0,0,1,2.33-.17A6.31,6.31,0,0,1,170,235.74Z" style="fill:#263238"></path><path d="M180,235.74a12.15,12.15,0,0,1-5,0,12.15,12.15,0,0,1,5,0Z" style="fill:#263238"></path><path d="M190,235.74a12.15,12.15,0,0,1-5,0,12.15,12.15,0,0,1,5,0Z" style="fill:#263238"></path><path d="M200,235.74a12.15,12.15,0,0,1-5,0,12.15,12.15,0,0,1,5,0Z" style="fill:#263238"></path><path d="M210,235.74a12.15,12.15,0,0,1-5,0,12.15,12.15,0,0,1,5,0Z" style="fill:#263238"></path></g><g id="freepik--Cloud--inject-172"><path d="M376.57,145.28a12.15,12.15,0,0,1,0-5,12.15,12.15,0,0,1,0,5Z" style="fill:#263238"></path><path d="M376.57,155.28a12.15,12.15,0,0,1,0-5,12.15,12.15,0,0,1,0,5Z" style="fill:#263238"></path><path d="M376.57,165.28a12.15,12.15,0,0,1,0-5,12.15,12.15,0,0,1,0,5Z" style="fill:#263238"></path><path d="M376.57,175.27a12.15,12.15,0,0,1,0-5,12.15,12.15,0,0,1,0,5Z" style="fill:#263238"></path><path d="M376.57,185.28a12.2,12.2,0,0,1,0-5,12.2,12.2,0,0,1,0,5Z" style="fill:#263238"></path><path d="M376.57,195.28a12.15,12.15,0,0,1,0-5,12.15,12.15,0,0,1,0,5Z" style="fill:#263238"></path><path d="M376.57,205.28a12.15,12.15,0,0,1,0-5,12.15,12.15,0,0,1,0,5Z" style="fill:#263238"></path><path d="M376.57,215.28a12.15,12.15,0,0,1,0-5,12.15,12.15,0,0,1,0,5Z" style="fill:#263238"></path><path d="M444.48,151.7l-.59,0-1.77,0-6.89,0-25.84.09L320.2,152H320l-.07-.23a22.16,22.16,0,0,1,21.87-28.37l-.33.43a19,19,0,0,1-.69-6c.27-6.9,4.19-13.56,10.21-16.64a20.19,20.19,0,0,1,18.9.1l-.46.17A29.35,29.35,0,0,1,386.7,85.37c7.36-2.68,15.52-2.33,21.94,1a29.88,29.88,0,0,1,13.58,14.84A28.42,28.42,0,0,1,423.9,119l-.25-.28A21.1,21.1,0,0,1,434,120.23a21.65,21.65,0,0,1,7.66,5.25,13.49,13.49,0,0,1,2.41,3.46,19.63,19.63,0,0,1,1.29,3.67,33.56,33.56,0,0,1,.88,6.71,38.24,38.24,0,0,1-.81,9.28,21.87,21.87,0,0,1-.64,2.33c-.18.52-.28.77-.28.77" style="fill:#FF0099"></path><path d="M433.17,117.45h-3.85V94.29a10.09,10.09,0,1,0-20.18,0v23.16h-3.85V94.29a13.94,13.94,0,1,1,27.88,0Z" style="fill:#e0e0e0"></path><rect x="400.17" y="107.14" width="38.12" height="24.46" rx="3.39" style="fill:#e0e0e0"></rect><path d="M419.23,119.37a3.19,3.19,0,1,1,3.18-3.18,3.18,3.18,0,0,1-3.18,3.18" style="fill:#455a64"></path><rect x="418.36" y="117.45" width="1.74" height="6.55" style="fill:#455a64"></rect></g><g id="freepik--Key--inject-172"><path d="M653.61,109.76a20.85,20.85,0,1,0-32.35-5l-4.25,4,1,7L611.44,114l-5.31,5,1,7-6.59-1.85L596,128.38l.62,4.29-4-1.12L590,134l-.4,6.53,9.73,2.45,31.57-29.46A20.85,20.85,0,0,0,653.61,109.76Zm-3.08-25.64a6,6,0,1,1-8.46-.29A6,6,0,0,1,650.53,84.12Z" style="fill:#263238"></path><path d="M653.61,109.76a20.85,20.85,0,1,0-32.35-5l-4.25,4,1,7L611.44,114l-5.31,5,1,7-6.59-1.85L596,128.38l.62,4.29-4-1.12L590,134l-.4,6.53,9.73,2.45,31.57-29.46A20.85,20.85,0,0,0,653.61,109.76Zm-3.08-25.64a6,6,0,1,1-8.46-.29A6,6,0,0,1,650.53,84.12Z" style="fill:none"></path><path d="M650.53,84.12s-.39-.37-1.19-.86a5.93,5.93,0,0,0-3.76-.82,5.76,5.76,0,1,0,6.28,6.74,6,6,0,0,0-.56-3.82c-.43-.83-.81-1.21-.77-1.24s.11.07.29.26a4.62,4.62,0,0,1,.66.89,6,6,0,0,1,.75,4A6.17,6.17,0,0,1,645,94.32a6.16,6.16,0,0,1-5-5.39,6.16,6.16,0,0,1,5.57-6.86,5.93,5.93,0,0,1,3.91,1,4.54,4.54,0,0,1,.84.72A1.23,1.23,0,0,1,650.53,84.12Z" style="fill:#263238"></path><path d="M653.61,109.76a2.65,2.65,0,0,1-.3.29l-.92.82a21.9,21.9,0,0,1-4,2.57,21,21,0,0,1-17.58.25l.17,0-31.51,29.51-.1.08-.12,0-9.73-2.44-.2-.05,0-.2c.12-2,.25-4.26.39-6.52v-.1l.08-.07,2.65-2.48.1-.09.14,0,4,1.13-.32.28c-.19-1.34-.4-2.81-.62-4.29v-.14l.09-.09,4.57-4.26.1-.1.14,0,6.59,1.85-.33.28c-.32-2.23-.67-4.63-1-7v-.13l.09-.1,1.41-1.31,3.9-3.64.11-.1.14,0,6.59,1.85-.33.28q-.51-3.55-1-7l0-.13.1-.09,4.24-4-.05.31a21.41,21.41,0,0,1-2.71-9.49,20.46,20.46,0,0,1,.35-4.83,20.23,20.23,0,0,1,1.39-4.54,21,21,0,0,1,38.17-.87,20.91,20.91,0,0,1,2,11,20.63,20.63,0,0,1-2.34,8l-.39.74-.42.66c-.29.42-.52.84-.8,1.18-.56.68-1,1.29-1.42,1.72l-1,1-.34.31.31-.35.93-1c.41-.43.83-1,1.37-1.72.27-.35.5-.77.77-1.19l.42-.66.37-.74a20.92,20.92,0,0,0,.16-18.75,20.67,20.67,0,0,0-24.79-10.49A20.65,20.65,0,0,0,620.5,86.28a19.76,19.76,0,0,0-1.35,4.43,19.46,19.46,0,0,0-.33,4.71,20.71,20.71,0,0,0,2.66,9.27l.09.17-.14.14-4.24,4,.08-.22q.5,3.48,1,7l.06.39-.38-.1-6.59-1.85.25-.06-3.9,3.64-1.41,1.31.08-.22c.35,2.41.69,4.81,1,7l.06.39-.38-.1-6.59-1.85.25-.06-4.57,4.26.08-.23c.21,1.48.42,2.95.62,4.29l0,.39-.37-.1-4-1.13.24-.06-2.65,2.48.08-.17c-.14,2.26-.28,4.49-.41,6.52l-.18-.25,9.73,2.46-.22,0,31.62-29.39.07-.07.1,0a20.92,20.92,0,0,0,17.38-.12,22.42,22.42,0,0,0,4.05-2.48c.41-.33.72-.59.94-.78Z" style="fill:#263238"></path><path d="M652.91,107.4a20.85,20.85,0,1,0-32.35-5h0l-4.24,4,1,7-6.59-1.85-5.31,5,1,7-6.59-1.85L595.3,126l.62,4.29-4-1.12-2.65,2.48-.4,6.52,9.73,2.45,31.57-29.45A20.85,20.85,0,0,0,652.91,107.4Zm-3.08-25.65a6,6,0,1,1-8.45-.29A6,6,0,0,1,649.83,81.75Z" style="fill:#e0e0e0"></path><path d="M652.91,107.4a20.85,20.85,0,1,0-32.35-5h0l-4.24,4,1,7-6.59-1.85-5.31,5,1,7-6.59-1.85L595.3,126l.62,4.29-4-1.12-2.65,2.48-.4,6.52,9.73,2.45,31.57-29.45A20.85,20.85,0,0,0,652.91,107.4Zm-3.08-25.65a6,6,0,1,1-8.45-.29A6,6,0,0,1,649.83,81.75Z" style="fill:none"></path><path d="M649.83,81.75s-.39-.36-1.19-.85a5.92,5.92,0,0,0-3.76-.83,5.76,5.76,0,1,0,6.29,6.74A5.91,5.91,0,0,0,650.6,83c-.43-.83-.81-1.21-.77-1.25s.11.08.29.26a4.62,4.62,0,0,1,.66.89,6,6,0,0,1,.75,4A6.19,6.19,0,0,1,644.3,92a6.19,6.19,0,0,1-5-5.4,6.08,6.08,0,0,1,.65-3.55,6.15,6.15,0,0,1,4.92-3.31,6,6,0,0,1,3.91,1,4.19,4.19,0,0,1,.84.72Q649.85,81.74,649.83,81.75Z" style="fill:#263238"></path><path d="M652.91,107.4a3.58,3.58,0,0,1-.3.28l-.91.82a21.87,21.87,0,0,1-4,2.57,21,21,0,0,1-17.58.25l.17,0L598.74,140.8l-.09.09-.13,0-9.73-2.44-.2,0,0-.2c.12-2,.25-4.27.39-6.53v-.1l.07-.06c.82-.77,1.73-1.63,2.65-2.48l.11-.1.13,0,4,1.12-.32.28c-.2-1.34-.41-2.81-.62-4.29l0-.13.09-.1,4.57-4.25.1-.1.14,0,6.59,1.84-.33.29c-.32-2.24-.67-4.63-1-7l0-.13.1-.09,1.4-1.32,3.9-3.64.11-.1.14,0,6.59,1.85-.33.29c-.34-2.38-.68-4.72-1-7l0-.13.1-.09,4.24-4,0,.31a21.29,21.29,0,0,1-2.72-9.49,21.3,21.3,0,0,1,1.74-9.36,21,21,0,0,1,38.17-.87,20.86,20.86,0,0,1,2.05,10.94,20.58,20.58,0,0,1-2.34,8l-.38.74-.43.66c-.29.43-.52.84-.79,1.19-.57.68-1,1.28-1.42,1.71l-1,1c-.22.22-.34.32-.34.32s.1-.13.31-.35l.93-1c.41-.43.83-1,1.38-1.73.26-.35.49-.77.76-1.19l.42-.66.38-.74A20.68,20.68,0,1,0,619.8,83.91a20.76,20.76,0,0,0-1.68,9.15,20.67,20.67,0,0,0,2.66,9.26l.1.18-.15.13-4.24,4,.08-.22q.49,3.48,1,7l.06.4-.38-.11-6.59-1.85.25-.06-3.9,3.64-1.41,1.32.08-.23c.35,2.41.69,4.81,1,7l.06.4-.38-.11L599.79,122l.25-.06-4.57,4.26.08-.22c.21,1.48.43,3,.62,4.29l.05.38-.37-.1-4-1.13.24-.06-2.66,2.48.08-.17c-.14,2.26-.28,4.49-.41,6.52l-.18-.25,9.73,2.46-.22.06L630,111.06l.08-.07.09,0a21.07,21.07,0,0,0,10,1.79,21.4,21.4,0,0,0,7.36-1.9,23.63,23.63,0,0,0,4-2.48l.94-.79Z" style="fill:#263238"></path><path d="M651,105.77a28,28,0,0,0,2.8-3.53,17.39,17.39,0,0,0,2.14-4.8,18.17,18.17,0,0,0,.6-6.91,18,18,0,0,0-2.75-7.89,18.26,18.26,0,0,0-7.08-6.42,17.07,17.07,0,0,0-4.93-1.66,21.54,21.54,0,0,0-2.68-.31,21.2,21.2,0,0,0-2.75.14A18,18,0,0,0,620.71,89a21.39,21.39,0,0,0-.33,2.73,22,22,0,0,0,.12,2.7,17.51,17.51,0,0,0,1.32,5,18.2,18.2,0,0,0,5.91,7.51,18.27,18.27,0,0,0,14.61,3.17,17.38,17.38,0,0,0,4.94-1.8,29.17,29.17,0,0,0,3.72-2.55s-.07.08-.21.21l-.65.58a8.41,8.41,0,0,1-1.12.89,14.72,14.72,0,0,1-1.64,1,17.55,17.55,0,0,1-5,1.91,18.57,18.57,0,0,1-14.94-3.11,18.74,18.74,0,0,1-6.09-7.67A17.46,17.46,0,0,1,620,94.46a19.41,19.41,0,0,1-.13-2.76,19.06,19.06,0,0,1,.33-2.81,18.49,18.49,0,0,1,16.09-15,20.48,20.48,0,0,1,2.82-.13,20.85,20.85,0,0,1,2.75.32,17.61,17.61,0,0,1,5.06,1.73,18.61,18.61,0,0,1,7.22,6.61,18.18,18.18,0,0,1,2.76,8.08,18.44,18.44,0,0,1-.69,7,17.43,17.43,0,0,1-2.25,4.83,12.91,12.91,0,0,1-1.16,1.56,8,8,0,0,1-1,1l-.63.61C651.08,105.71,651,105.78,651,105.77Z" style="fill:#263238"></path><path d="M650.15,91s.44-.45,1-1.38a6.93,6.93,0,0,0-.06-7.38,6.75,6.75,0,0,0-2.67-2.39,6.61,6.61,0,0,0-3.86-.68,6.73,6.73,0,0,0-5.85,5.45,6.71,6.71,0,0,0,.41,3.91,6.9,6.9,0,0,0,9.56,3.39c1-.52,1.41-1,1.45-.92s-.09.13-.31.33a5.34,5.34,0,0,1-1,.77,7.09,7.09,0,0,1-7.71-.41,7.22,7.22,0,0,1-2.86-7.17,7.22,7.22,0,0,1,6.29-5.86,7.17,7.17,0,0,1,8,6.49,7,7,0,0,1-1.18,4.58,6,6,0,0,1-.84,1A1.55,1.55,0,0,1,650.15,91Z" style="fill:#263238"></path><path d="M596,139.47c-.1-.1,7-6.89,15.87-15.16s16.14-14.9,16.24-14.79-7,6.89-15.88,15.17S596.13,139.58,596,139.47Z" style="fill:#263238"></path><path d="M565.31,229.81a12.15,12.15,0,0,1-5,0,12.15,12.15,0,0,1,5,0Z" style="fill:#263238"></path><path d="M575.31,229.81a12.15,12.15,0,0,1-5,0,12.15,12.15,0,0,1,5,0Z" style="fill:#263238"></path><path d="M585.31,229.81a12.15,12.15,0,0,1-5,0,12.15,12.15,0,0,1,5,0Z" style="fill:#263238"></path><path d="M595.31,229.81a12.15,12.15,0,0,1-5,0,12.15,12.15,0,0,1,5,0Z" style="fill:#263238"></path><path d="M605.31,229.81a12.15,12.15,0,0,1-5,0,12.15,12.15,0,0,1,5,0Z" style="fill:#263238"></path><path d="M615.31,229.81a12.15,12.15,0,0,1-5,0,12.15,12.15,0,0,1,5,0Z" style="fill:#263238"></path><path d="M623.8,228.3c.1,0,.2.62.24,1.51V230h-.25l-1,0a6.31,6.31,0,0,1-2.5-.26,6.31,6.31,0,0,1,2.5-.26l1,0-.24.24C623.6,228.92,623.69,228.3,623.8,228.3Z" style="fill:#263238"></path><path d="M623.8,218.3a12.15,12.15,0,0,1,0,5,12.15,12.15,0,0,1,0-5Z" style="fill:#263238"></path><path d="M623.8,208.3a12.15,12.15,0,0,1,0,5,12.15,12.15,0,0,1,0-5Z" style="fill:#263238"></path><path d="M623.8,198.3a12.15,12.15,0,0,1,0,5,12.15,12.15,0,0,1,0-5Z" style="fill:#263238"></path><path d="M623.8,188.3a12.15,12.15,0,0,1,0,5,12.15,12.15,0,0,1,0-5Z" style="fill:#263238"></path><path d="M623.8,178.3a12.15,12.15,0,0,1,0,5,12.15,12.15,0,0,1,0-5Z" style="fill:#263238"></path><path d="M623.8,168.3a12.15,12.15,0,0,1,0,5,12.15,12.15,0,0,1,0-5Z" style="fill:#263238"></path><path d="M623.8,158.3a12.15,12.15,0,0,1,0,5,12.15,12.15,0,0,1,0-5Z" style="fill:#263238"></path><path d="M623.8,148.3a12.15,12.15,0,0,1,0,5,12.15,12.15,0,0,1,0-5Z" style="fill:#263238"></path><path d="M623.8,138.3a12.15,12.15,0,0,1,0,5,12.15,12.15,0,0,1,0-5Z" style="fill:#263238"></path><path d="M623.8,128.3a12.15,12.15,0,0,1,0,5,12.15,12.15,0,0,1,0-5Z" style="fill:#263238"></path></g><g id="freepik--Folder--inject-172"><path d="M548.82,329.48a12.15,12.15,0,0,1-5,0,12.15,12.15,0,0,1,5,0Z" style="fill:#263238"></path><path d="M558.82,329.48a12.15,12.15,0,0,1-5,0,12.15,12.15,0,0,1,5,0Z" style="fill:#263238"></path><path d="M568.82,329.48a12.15,12.15,0,0,1-5,0,12.15,12.15,0,0,1,5,0Z" style="fill:#263238"></path><path d="M578.82,329.48a12.15,12.15,0,0,1-5,0,12.15,12.15,0,0,1,5,0Z" style="fill:#263238"></path><path d="M588.82,329.48a12.15,12.15,0,0,1-5,0,12.15,12.15,0,0,1,5,0Z" style="fill:#263238"></path><path d="M598.82,329.48a12.15,12.15,0,0,1-5,0,12.15,12.15,0,0,1,5,0Z" style="fill:#263238"></path><path d="M608.82,329.48a12.15,12.15,0,0,1-5,0,12.15,12.15,0,0,1,5,0Z" style="fill:#263238"></path><path d="M618.82,329.48a12.15,12.15,0,0,1-5,0,12.15,12.15,0,0,1,5,0Z" style="fill:#263238"></path><path d="M628.82,329.48a12.15,12.15,0,0,1-5,0,12.15,12.15,0,0,1,5,0Z" style="fill:#263238"></path><path d="M638.82,329.48a12.15,12.15,0,0,1-5,0,12.15,12.15,0,0,1,5,0Z" style="fill:#263238"></path><path d="M647.89,328.55c.09,0,.15.36.2.94v.18l-.22,0c-.42,0-1,.05-1.56.05a6.11,6.11,0,0,1-2.5-.26,6.31,6.31,0,0,1,2.5-.26c.6,0,1.14,0,1.56.06l-.2.2C647.73,328.91,647.81,328.55,647.89,328.55Z" style="fill:#263238"></path><path d="M648,318.55a6.11,6.11,0,0,1,.24,2.5,6.21,6.21,0,0,1-.29,2.5,6.21,6.21,0,0,1-.23-2.5A6.31,6.31,0,0,1,648,318.55Z" style="fill:#263238"></path><path d="M648.09,308.55a6.32,6.32,0,0,1,.24,2.5,6.21,6.21,0,0,1-.29,2.5,6.21,6.21,0,0,1-.23-2.5A6.31,6.31,0,0,1,648.09,308.55Z" style="fill:#263238"></path><path d="M648.19,298.55a6.32,6.32,0,0,1,.24,2.5,6.42,6.42,0,0,1-.29,2.5,6.32,6.32,0,0,1-.24-2.5A6.42,6.42,0,0,1,648.19,298.55Z" style="fill:#263238"></path><path d="M615.1,267.21,616.94,301a2.27,2.27,0,0,0,2.26,2.16l60.81.45a2.29,2.29,0,0,0,2.3-2.27l.19-26.3a2.28,2.28,0,0,0-2.28-2.3l-37.4,0a2.28,2.28,0,0,1-1.61-.67l-6.45-6.45a2.26,2.26,0,0,0-1.6-.67l-15.77-.12A2.29,2.29,0,0,0,615.1,267.21Z" style="fill:#FF0099"></path><rect x="615.95" y="268.52" width="66.45" height="39.7" transform="translate(2.13 -4.75) rotate(0.42)" style="fill:#f5f5f5"></rect><path d="M610.79,271.8l4.77,41.44a1.45,1.45,0,0,0,1.45,1.3l64.75.48a1.46,1.46,0,0,0,1.47-1.35l3.57-41.38a1.47,1.47,0,0,0-1.46-1.59l-73.08-.53A1.47,1.47,0,0,0,610.79,271.8Z" style="fill:#FF0099"></path></g><g id="freepik--Device--inject-172"><rect x="207.26" y="207.37" width="363.83" height="240.6" rx="14.57" style="fill:#263238"></rect><path d="M192,430.18H586.23a0,0,0,0,1,0,0v3.25a17.8,17.8,0,0,1-17.8,17.8H209.85a17.8,17.8,0,0,1-17.8-17.8v-3.25A0,0,0,0,1,192,430.18Z" style="fill:#263238"></path><rect x="217.03" y="216.93" width="343.28" height="203.18" style="fill:#455a64"></rect><polygon points="353.31 430.18 358.2 437.96 427.03 437.96 431.58 430.18 353.31 430.18" style="fill:#455a64"></polygon><rect x="224.1" y="223.81" width="329.85" height="195.65" rx="3.27" style="fill:#ebebeb"></rect><rect x="224.1" y="238.15" width="329.85" height="181.32" style="fill:#fafafa"></rect><path d="M251.15,231.37a2.64,2.64,0,1,1-2.63-2.64A2.63,2.63,0,0,1,251.15,231.37Z" style="fill:#263238"></path><path d="M235.19,231.37a2.64,2.64,0,1,1-2.64-2.64A2.64,2.64,0,0,1,235.19,231.37Z" style="fill:#263238"></path><path d="M242.85,231.37a2.64,2.64,0,1,1-2.63-2.64A2.63,2.63,0,0,1,242.85,231.37Z" style="fill:#263238"></path><path d="M568,430.18c0,.13-80.75.24-180.34.24s-180.37-.11-180.37-.24,80.74-.24,180.37-.24S568,430.05,568,430.18Z" style="fill:#455a64"></path><rect x="246.96" y="329.49" width="75.27" height="5.04" style="fill:#e0e0e0"></rect><rect x="344.18" y="259.58" width="75.27" height="5.04" style="fill:#e0e0e0"></rect><path d="M531.4,278.33c0,.13-41.91.24-93.61.24s-93.61-.11-93.61-.24,41.91-.23,93.61-.23S531.4,278.2,531.4,278.33Z" style="fill:#e0e0e0"></path><path d="M531.4,289.33c0,.13-41.91.23-93.61.23s-93.61-.1-93.61-.23,41.91-.24,93.61-.24S531.4,289.2,531.4,289.33Z" style="fill:#e0e0e0"></path><path d="M531.4,300.32c0,.13-41.91.24-93.61.24s-93.61-.11-93.61-.24,41.91-.23,93.61-.23S531.4,300.19,531.4,300.32Z" style="fill:#e0e0e0"></path><path d="M531.4,311.32c0,.13-41.91.23-93.61.23s-93.61-.1-93.61-.23,41.91-.24,93.61-.24S531.4,311.19,531.4,311.32Z" style="fill:#e0e0e0"></path><path d="M531.4,322.31c0,.13-41.91.24-93.61.24s-93.61-.11-93.61-.24,41.91-.23,93.61-.23S531.4,322.18,531.4,322.31Z" style="fill:#e0e0e0"></path><path d="M417.26,333.31c0,.13-16.36.23-36.54.23s-36.54-.1-36.54-.23,16.36-.24,36.54-.24S417.26,333.18,417.26,333.31Z" style="fill:#e0e0e0"></path><path d="M530,354.64c0,.13-27.55.24-61.52.24s-61.53-.11-61.53-.24,27.54-.23,61.53-.23S530,354.51,530,354.64Z" style="fill:#e0e0e0"></path><path d="M530,366.32c0,.13-27.55.23-61.52.23s-61.53-.1-61.53-.23,27.54-.24,61.53-.24S530,366.19,530,366.32Z" style="fill:#e0e0e0"></path><path d="M530,378c0,.13-27.55.23-61.52.23S407,378.12,407,378s27.54-.24,61.53-.24S530,377.86,530,378Z" style="fill:#e0e0e0"></path><path d="M530,389.66c0,.13-27.55.23-61.52.23s-61.53-.1-61.53-.23,27.54-.24,61.53-.24S530,389.53,530,389.66Z" style="fill:#e0e0e0"></path><path d="M322.42,353.53c0,.13-16.42.23-36.68.23s-36.68-.1-36.68-.23,16.42-.24,36.68-.24S322.42,353.4,322.42,353.53Z" style="fill:#e0e0e0"></path><path d="M322.42,362.69c0,.13-16.42.24-36.68.24s-36.68-.11-36.68-.24,16.42-.23,36.68-.23S322.42,362.56,322.42,362.69Z" style="fill:#e0e0e0"></path><path d="M322.42,371.86c0,.13-16.42.24-36.68.24s-36.68-.11-36.68-.24,16.42-.24,36.68-.24S322.42,371.73,322.42,371.86Z" style="fill:#e0e0e0"></path><path d="M322.42,381c0,.13-16.42.23-36.68.23s-36.68-.1-36.68-.23,16.42-.24,36.68-.24S322.42,380.9,322.42,381Z" style="fill:#e0e0e0"></path><path d="M322.42,390.19c0,.13-16.42.24-36.68.24s-36.68-.11-36.68-.24,16.42-.23,36.68-.23S322.42,390.06,322.42,390.19Z" style="fill:#e0e0e0"></path><rect x="344.13" y="349.08" width="53.4" height="51.67" style="fill:#f5f5f5"></rect><polygon points="348.27 396.32 363.05 369.73 375.13 386.73 382.48 377.7 393.4 396.32 348.27 396.32" style="fill:#ebebeb"></polygon><path d="M380.28,364.56a3.85,3.85,0,1,1-3.84-3.84A3.84,3.84,0,0,1,380.28,364.56Z" style="fill:#ebebeb"></path><path d="M393.4,396.47a.82.82,0,0,1,0-.22c0-.15,0-.35,0-.6,0-.55,0-1.32,0-2.32,0-2.05,0-5-.06-8.78,0-7.55-.06-18.29-.11-31.2l.22.22-45.12,0,.25-.25h0V365c0,3.8,0,7.52,0,11.13,0,7.24,0,14.08,0,20.38l-.22-.23,32.62.12,9.2.05,2.44,0h.64l.22,0h-.81l-2.4,0-9.15.05-32.76.12h-.23v-.22c0-6.3,0-13.14,0-20.38,0-3.61,0-7.33,0-11.13V353.37h0l.26-.26,45.12,0h.22v.21c-.05,13-.09,23.76-.11,31.34,0,3.74-.05,6.69-.06,8.73q0,1.47,0,2.28c0,.24,0,.43,0,.58A1.31,1.31,0,0,1,393.4,396.47Z" style="fill:#ebebeb"></path><rect x="248.38" y="250.98" width="72.43" height="70.08" style="fill:#f5f5f5"></rect><polygon points="253.99 315.06 274.03 279 290.42 302.05 300.38 289.81 315.19 315.06 253.99 315.06" style="fill:#e0e0e0"></polygon><path d="M297.4,272a5.21,5.21,0,1,1-5.21-5.21A5.21,5.21,0,0,1,297.4,272Z" style="fill:#e0e0e0"></path><path d="M315.19,315.26s0-.1,0-.29,0-.48,0-.82q0-1.11,0-3.15c0-2.78-.05-6.8-.08-11.9,0-10.24-.09-24.81-.15-42.31l.29.29-61.19.05c-.08.07.65-.65.34-.33h0v15.72q0,7.73,0,15.1c0,9.81,0,19.09,0,27.63l-.3-.3,44.25.15,12.48.08,3.32,0,.85,0,.3,0h-.26l-.83,0-3.25,0-12.41.08-44.45.15h-.3v-.3c0-8.54,0-17.82,0-27.63q0-7.36,0-15.1V256.81h0c-.31.3.42-.44.35-.36l61.19.05h.3v.3c-.06,17.58-.11,32.22-.15,42.5,0,5.07-.06,9.07-.08,11.83,0,1.33,0,2.37,0,3.1,0,.33,0,.58,0,.78A.71.71,0,0,1,315.19,315.26Z" style="fill:#e0e0e0"></path><polygon points="330.52 277.61 334.1 284.86 342.1 286.02 336.31 291.67 337.67 299.64 330.52 295.88 323.36 299.64 324.73 291.67 318.94 286.02 326.94 284.86 330.52 277.61" style="fill:#FF0099"></polygon><polygon points="355.72 252.41 359.3 259.66 367.3 260.82 361.51 266.47 362.88 274.44 355.72 270.67 348.56 274.44 349.93 266.47 344.14 260.82 352.14 259.66 355.72 252.41" style="fill:#FF0099"></polygon><polygon points="389.4 242.52 392.98 249.77 400.98 250.93 395.19 256.57 396.56 264.54 389.4 260.78 382.24 264.54 383.61 256.57 377.82 250.93 385.82 249.77 389.4 242.52" style="fill:#FF0099"></polygon><polygon points="424.26 252.65 427.84 259.9 435.84 261.06 430.05 266.7 431.42 274.67 424.26 270.91 417.1 274.67 418.47 266.7 412.68 261.06 420.68 259.9 424.26 252.65" style="fill:#FF0099"></polygon><polygon points="448.28 276.67 451.86 283.92 459.86 285.08 454.07 290.73 455.44 298.69 448.28 294.93 441.13 298.69 442.49 290.73 436.7 285.08 444.7 283.92 448.28 276.67" style="fill:#FF0099"></polygon><polygon points="457 311.53 460.58 318.78 468.58 319.94 462.79 325.58 464.15 333.55 457 329.79 449.84 333.55 451.21 325.58 445.42 319.94 453.42 318.78 457 311.53" style="fill:#FF0099"></polygon><polygon points="448.52 346.15 452.1 353.4 460.1 354.56 454.31 360.21 455.68 368.18 448.52 364.41 441.36 368.18 442.73 360.21 436.94 354.56 444.94 353.4 448.52 346.15" style="fill:#FF0099"></polygon><polygon points="423 370.18 426.58 377.43 434.58 378.59 428.79 384.23 430.16 392.2 423 388.44 415.85 392.2 417.21 384.23 411.43 378.59 419.43 377.43 423 370.18" style="fill:#FF0099"></polygon><polygon points="388.72 380.08 392.3 387.33 400.3 388.49 394.51 394.14 395.88 402.1 388.72 398.34 381.57 402.1 382.93 394.14 377.14 388.49 385.14 387.33 388.72 380.08" style="fill:#FF0099"></polygon><polygon points="355.98 370.19 359.56 377.44 367.56 378.6 361.77 384.24 363.14 392.21 355.98 388.45 348.83 392.21 350.19 384.24 344.4 378.6 352.41 377.44 355.98 370.19" style="fill:#FF0099"></polygon><polygon points="330.08 345.52 333.65 352.77 341.65 353.94 335.87 359.58 337.23 367.55 330.08 363.79 322.92 367.55 324.29 359.58 318.5 353.94 326.5 352.77 330.08 345.52" style="fill:#FF0099"></polygon><polygon points="321.36 311.57 324.94 318.82 332.94 319.98 327.15 325.63 328.52 333.59 321.36 329.83 314.2 333.59 315.57 325.63 309.78 319.98 317.78 318.82 321.36 311.57" style="fill:#FF0099"></polygon><path d="M414.09,336.44h-7v-38.1a16.26,16.26,0,1,0-32.52,0v38.1h-7v-38.1a23.26,23.26,0,1,1,46.52,0Z" style="fill:#263238"></path><rect x="359.48" y="319.49" width="62.7" height="40.23" rx="5.81" style="fill:#FF0099"></rect><path d="M396.07,334.36a5.24,5.24,0,1,1-5.24-5.24A5.24,5.24,0,0,1,396.07,334.36Z" style="fill:#263238"></path><rect x="389.4" y="336.44" width="2.86" height="10.78" style="fill:#263238"></rect><path d="M362.82,355.9c-.14,0-.26-6.71-.26-15s.12-15,.26-15,.26,6.71.26,15S363,355.9,362.82,355.9Z" style="fill:#fafafa"></path><path d="M386.73,341.08s-.25-.08-.62-.35a6.31,6.31,0,0,1-1.35-1.38,7.35,7.35,0,0,1,2.61-11,6.32,6.32,0,0,1,1.83-.62,1.72,1.72,0,0,1,.7,0,17.24,17.24,0,0,0-2.35,1,7.27,7.27,0,0,0-2.49,10.48A15.6,15.6,0,0,0,386.73,341.08Z" style="fill:#fafafa"></path></g></svg>